<?xml version="1.0" encoding="utf-8"?>
<svg version="1.2" baseProfile="tiny-ps" xmlns="http://www.w3.org/2000/svg"
	viewBox="0 0 194 194"
	xmlns:xlink="http://www.w3.org/1999/xlink"
	overflow="visible">
	<title>room service 360</title>
	<g id="design">
		<g>
			<linearGradient id="SVGID_1_" gradientUnits="userSpaceOnUse" x1="145.3828" y1="180.543"
				x2="48.8667" y2="13.3722">
				<stop offset="0" style="stop-color:#202020" />
				<stop offset="0.1928" style="stop-color:#3D3D3D" />
				<stop offset="0.3976" style="stop-color:#555555" />
				<stop offset="0.5235" style="stop-color:#5E5E5E" />
				<stop offset="0.7734" style="stop-color:#3F3F3F" />
				<stop offset="1" style="stop-color:#202020" />
			</linearGradient>
			<rect fill="url(#SVGID_1_)" x="0" y="0" width="194" height="194" />
			<radialGradient id="SVGID_2_" cx="97.125" cy="96.958" r="118" gradientUnits="userSpaceOnUse">
				<stop offset="0.4" style="stop-color:#FFFFFF;stop-opacity:0.2772" />
				<stop offset="0.45" style="stop-color:#F7F7F7;stop-opacity:0.3399" />
				<stop offset="0.5" style="stop-color:#E1E1E1;stop-opacity:0.4374" />
				<stop offset="0.55" style="stop-color:#BDBDBD;stop-opacity:0.5575" />
				<stop offset="0.70" style="stop-color:#8B8B8B;stop-opacity:0.6956" />
				<stop offset="0.75" style="stop-color:#4C4C4C;stop-opacity:0.847" />
				<stop offset=".78" style="stop-color:#383838;stop-opacity:0.8912" />
				<stop offset=".79" style="stop-color:#202020" />

				<stop offset="0.85" style="stop-color:#BDBDBD;stop-opacity:0.5575" />
				<stop offset="0.90" style="stop-color:#8B8B8B;stop-opacity:0.6956" />
				<stop offset="0.95" style="stop-color:#4C4C4C;stop-opacity:0.847" />
				<stop offset="1" style="stop-color:#383838;stop-opacity:0.8912" />


			</radialGradient>
			<rect opacity="0.4" fill="url(#SVGID_2_)" x="0" y="0" width="194" height="194" />
		</g>
		<g>
			<path fill="#FFFFFF"
				d="M48.252,31.965c0-1.202,0.482-2.221,1.447-3.054c0.964-0.833,2.142-1.25,3.536-1.25
			c1.392,0,2.572,0.417,3.537,1.25c0.964,0.833,1.447,1.852,1.447,3.054v6.802c3.429-3.238,7.555-5.899,12.378-7.981
			c4.822-2.083,10.072-3.124,15.753-3.124c1.713,0,3.079,0.417,4.099,1.25c1.017,0.833,1.527,1.852,1.527,3.054
			c0,1.204-0.51,2.221-1.527,3.054c-1.02,0.833-2.386,1.25-4.099,1.25c-3.858,0-7.45,0.648-10.771,1.943
			c-3.323,1.297-6.244,3.054-8.761,5.275c-2.519,2.221-4.556,4.767-6.108,7.635c-1.555,2.869-2.386,5.878-2.492,9.022v30.678
			c0,1.204-0.482,2.221-1.447,3.054s-2.145,1.25-3.537,1.25c-1.394,0-2.572-0.417-3.536-1.25c-0.965-0.833-1.447-1.85-1.447-3.054
			V31.965z" />
			<path fill="#FFFFFF"
				d="M95.834,45.292c0-3.238,0.748-5.969,2.25-8.19c1.5-2.221,3.482-4.026,5.947-5.414
			c2.465-1.388,5.25-2.381,8.359-2.984c3.107-0.601,6.215-0.902,9.324-0.902c2.572,0,5.305,0.256,8.197,0.764
			c2.895,0.51,5.572,1.273,8.039,2.291c2.463,1.019,4.5,2.269,6.107,3.748c1.607,1.481,2.412,3.241,2.412,5.275
			c0,1.02-0.402,2.013-1.205,2.985c-0.805,0.972-2.119,1.458-3.939,1.458c-2.037,0-3.592-1.018-4.662-3.054
			c-0.965-1.757-2.84-3.075-5.625-3.956c-2.789-0.878-5.896-1.319-9.324-1.319c-1.824,0-3.672,0.117-5.547,0.347
			c-1.875,0.232-3.562,0.694-5.062,1.388c-1.502,0.694-2.76,1.644-3.777,2.846c-1.02,1.204-1.527,2.776-1.527,4.72
			c0,1.388,0.508,2.592,1.527,3.609c1.018,1.02,2.303,1.874,3.857,2.568c1.553,0.694,3.268,1.228,5.145,1.597
			c1.873,0.371,3.67,0.694,5.385,0.972c3.963,0.555,7.688,1.366,11.172,2.429c3.48,1.065,6.535,2.429,9.162,4.095
			c2.625,1.666,4.715,3.657,6.27,5.969c1.553,2.314,2.332,4.997,2.332,8.051c0,3.054-0.752,5.854-2.252,8.398
			c-1.502,2.546-3.562,4.72-6.188,6.524c-2.627,1.805-5.707,3.193-9.244,4.165c-3.535,0.972-7.289,1.458-11.252,1.458
			c-6.752,0-12.674-1.34-17.764-4.025c-5.09-2.683-8.494-6.386-10.207-11.105c-0.108-0.278-0.161-0.694-0.161-1.25
			c0-1.202,0.455-2.267,1.366-3.193c0.91-0.924,2.115-1.388,3.617-1.388c1.178,0,2.223,0.301,3.135,0.902
			c0.91,0.603,1.633,1.412,2.17,2.429c1.393,2.963,3.777,5.206,7.154,6.732c3.375,1.527,6.938,2.291,10.689,2.291
			c5.25,0,9.725-1.041,13.422-3.123c3.697-2.083,5.547-5.019,5.547-8.815c0-3.054-1.824-5.644-5.467-7.773
			c-3.643-2.127-8.145-3.516-13.502-4.164c-7.717-0.924-13.961-2.752-18.727-5.483C98.217,54.431,95.834,50.475,95.834,45.292z" />
		</g>
		<g>
			<path fill="#FFFFFF"
				d="M51.717,127.744c1.776-0.098,3.293-0.788,4.551-2.071s1.887-2.837,1.887-4.662
			c0-1.875-0.655-3.466-1.961-4.773c-1.308-1.307-2.898-1.961-4.773-1.961c-1.875,0-3.466,0.654-4.773,1.961
			c-1.308,1.308-1.961,2.875-1.961,4.699c0,0.691-0.222,1.246-0.666,1.665c-0.444,0.42-1.012,0.629-1.702,0.629
			c-0.691,0-1.246-0.209-1.665-0.629c-0.419-0.419-0.629-0.974-0.629-1.665c0-1.528,0.296-2.984,0.888-4.366
			c0.592-1.381,1.406-2.59,2.442-3.626s2.244-1.85,3.626-2.442c1.381-0.592,2.861-0.888,4.44-0.888c1.579,0,3.059,0.296,4.44,0.888
			c1.381,0.593,2.59,1.406,3.626,2.442c1.036,1.036,1.85,2.245,2.442,3.626c0.592,1.382,0.888,2.861,0.888,4.44
			c0,1.775-0.37,3.416-1.11,4.921s-1.728,2.774-2.96,3.811c2.22,1.283,4.02,3.047,5.402,5.291c1.381,2.246,2.072,4.749,2.072,7.511
			c0,2.023-0.396,3.936-1.184,5.735c-0.79,1.802-1.85,3.367-3.182,4.699s-2.898,2.394-4.699,3.182
			c-1.802,0.789-3.713,1.185-5.735,1.185c-2.023,0-3.935-0.396-5.735-1.185c-1.801-0.788-3.367-1.85-4.699-3.182
			c-1.332-1.332-2.393-2.897-3.182-4.699c-0.79-1.8-1.184-3.712-1.184-5.735c0-0.64,0.222-1.184,0.666-1.628
			c0.444-0.443,0.986-0.666,1.628-0.666c0.641,0,1.184,0.223,1.628,0.666c0.444,0.444,0.666,0.988,0.666,1.628
			c0,1.432,0.271,2.764,0.814,3.996c0.542,1.234,1.27,2.307,2.183,3.22c0.912,0.913,1.985,1.641,3.219,2.183
			c1.233,0.543,2.565,0.814,3.996,0.814c1.381,0,2.701-0.271,3.959-0.814c1.258-0.542,2.343-1.27,3.256-2.183
			c0.912-0.913,1.639-1.985,2.183-3.22c0.542-1.232,0.814-2.564,0.814-3.996c0-1.38-0.259-2.675-0.777-3.885
			c-0.518-1.208-1.221-2.269-2.109-3.182c-0.888-0.912-1.924-1.652-3.108-2.22s-2.468-0.876-3.848-0.926h-0.37
			c-0.642,0-1.184-0.222-1.628-0.666c-0.444-0.443-0.666-0.986-0.666-1.628c0-0.641,0.222-1.184,0.666-1.628
			c0.444-0.443,0.986-0.666,1.628-0.666H51.717z" />
			<path fill="#FFFFFF"
				d="M87.829,110.65c0.246-0.345,0.542-0.604,0.888-0.777c0.345-0.172,0.715-0.259,1.11-0.259
			c0.69,0,1.232,0.234,1.628,0.703c0.394,0.47,0.592,0.999,0.592,1.591c0,0.444-0.099,0.84-0.296,1.185l-8.066,12.58
			c0.542-0.099,1.097-0.186,1.665-0.26c0.566-0.073,1.147-0.11,1.739-0.11c2.17,0,4.218,0.406,6.142,1.221
			c1.924,0.813,3.6,1.937,5.032,3.367c1.431,1.432,2.564,3.107,3.404,5.032c0.838,1.924,1.258,3.972,1.258,6.142
			c0,2.171-0.42,4.218-1.258,6.142c-0.84,1.925-1.974,3.603-3.404,5.032c-1.432,1.432-3.108,2.565-5.032,3.404
			s-3.972,1.258-6.142,1.258c-2.171,0-4.218-0.419-6.142-1.258c-1.924-0.839-3.602-1.973-5.032-3.404
			c-1.432-1.43-2.553-3.107-3.367-5.032c-0.814-1.924-1.221-3.971-1.221-6.142c0-1.677,0.271-3.293,0.814-4.847
			c0.542-1.555,1.282-3.046,2.22-4.478L87.829,110.65z M87.089,129.816c-1.579,0-3.046,0.296-4.403,0.888
			c-1.357,0.593-2.529,1.395-3.515,2.405c-0.987,1.012-1.776,2.208-2.368,3.589c-0.592,1.382-0.888,2.838-0.888,4.366
			c0,1.579,0.296,3.047,0.888,4.403c0.592,1.357,1.38,2.528,2.368,3.515c0.986,0.987,2.158,1.776,3.515,2.368
			c1.356,0.592,2.824,0.888,4.403,0.888c1.529,0,2.984-0.296,4.366-0.888c1.38-0.592,2.577-1.381,3.589-2.368
			c1.011-0.986,1.812-2.157,2.405-3.515c0.592-1.356,0.888-2.824,0.888-4.403c0-1.528-0.296-2.984-0.888-4.366
			c-0.593-1.381-1.395-2.577-2.405-3.589c-1.012-1.011-2.208-1.812-3.589-2.405C90.073,130.112,88.618,129.816,87.089,129.816z" />
			<path fill="#FFFFFF"
				d="M131.784,109.763c3.256,0,6.314,0.617,9.176,1.85c2.86,1.233,5.365,2.923,7.512,5.069
			c2.146,2.146,3.835,4.65,5.068,7.511c1.232,2.861,1.851,5.92,1.851,9.176s-0.618,6.315-1.851,9.176
			c-1.233,2.862-2.923,5.354-5.068,7.475c-2.146,2.121-4.651,3.799-7.512,5.032c-2.861,1.233-5.92,1.85-9.176,1.85
			s-6.315-0.616-9.176-1.85c-2.862-1.233-5.354-2.911-7.475-5.032s-3.799-4.612-5.031-7.475c-1.234-2.86-1.851-5.92-1.851-9.176
			s0.616-6.314,1.851-9.176c1.232-2.86,2.91-5.365,5.031-7.511c2.121-2.146,4.612-3.836,7.475-5.069
			C125.469,110.38,128.528,109.763,131.784,109.763z M131.784,114.351c-2.615,0-5.082,0.493-7.4,1.479
			c-2.319,0.987-4.328,2.344-6.03,4.07c-1.702,1.728-3.047,3.75-4.033,6.068c-0.987,2.319-1.48,4.785-1.48,7.399
			c0,2.615,0.493,5.082,1.48,7.4c0.986,2.319,2.331,4.329,4.033,6.031c1.702,1.701,3.711,3.046,6.03,4.032
			c2.318,0.988,4.785,1.48,7.4,1.48c2.614,0,5.081-0.492,7.4-1.48c2.318-0.986,4.34-2.331,6.067-4.032
			c1.727-1.702,3.083-3.712,4.07-6.031c0.986-2.318,1.479-4.785,1.479-7.4c0-2.614-0.493-5.08-1.479-7.399
			c-0.987-2.318-2.344-4.341-4.07-6.068c-1.728-1.727-3.749-3.083-6.067-4.07C136.865,114.844,134.398,114.351,131.784,114.351z" />
		</g>
		<g>
			<path fill="#FFFFFF"
				d="M169.384,97.897c1.328,0,2.571,0.247,3.729,0.741c1.157,0.493,2.171,1.175,3.039,2.043
			c0.869,0.868,1.55,1.883,2.044,3.04c0.493,1.158,0.74,2.401,0.74,3.729s-0.247,2.562-0.74,3.703
			c-0.494,1.142-1.175,2.146-2.044,3.015c-0.868,0.868-1.882,1.55-3.039,2.044c-1.158,0.494-2.401,0.74-3.729,0.74
			s-2.563-0.246-3.704-0.74c-1.142-0.494-2.146-1.176-3.015-2.044c-0.868-0.868-1.55-1.873-2.043-3.015
			c-0.494-1.141-0.741-2.375-0.741-3.703s0.247-2.571,0.741-3.729c0.493-1.157,1.175-2.172,2.043-3.04
			c0.869-0.868,1.873-1.55,3.015-2.043C166.82,98.145,168.056,97.897,169.384,97.897z M169.384,101.064
			c-0.887,0-1.712,0.171-2.479,0.512c-0.766,0.341-1.438,0.8-2.018,1.379s-1.03,1.252-1.354,2.018
			c-0.324,0.767-0.485,1.593-0.485,2.479s0.161,1.711,0.485,2.478c0.323,0.767,0.774,1.439,1.354,2.018
			c0.579,0.58,1.252,1.031,2.018,1.354c0.767,0.324,1.592,0.485,2.479,0.485c0.885,0,1.711-0.161,2.478-0.485
			c0.767-0.323,1.438-0.774,2.018-1.354c0.579-0.578,1.039-1.251,1.38-2.018c0.34-0.767,0.511-1.592,0.511-2.478
			s-0.171-1.712-0.511-2.479c-0.341-0.766-0.801-1.438-1.38-2.018s-1.251-1.038-2.018-1.379S170.269,101.064,169.384,101.064z" />
		</g>
	</g>
</svg>