<?xml version="1.0" encoding="UTF-8" standalone="no"?>
<svg
   xmlns:dc="http://purl.org/dc/elements/1.1/"
   xmlns:cc="http://creativecommons.org/ns#"
   xmlns:rdf="http://www.w3.org/1999/02/22-rdf-syntax-ns#"
   xmlns:svg="http://www.w3.org/2000/svg"
   xmlns="http://www.w3.org/2000/svg"
   viewBox="0 0 448.45334 141.13333"
   height="141.13333"
   width="448.45334"
   xml:space="preserve"
   id="svg2"
   version="1.1"><metadata
     id="metadata8"><rdf:RDF><cc:Work
         rdf:about=""><dc:format>image/svg+xml</dc:format><dc:type
           rdf:resource="http://purl.org/dc/dcmitype/StillImage" /></cc:Work></rdf:RDF></metadata><defs
     id="defs6" /><g
     transform="matrix(1.3333333,0,0,-1.3333333,0,141.13333)"
     id="g10"><g
       transform="scale(0.1)"
       id="g12"><path
         id="path14"
         style="fill:#cd1e25;fill-opacity:1;fill-rule:nonzero;stroke:none"
         d="m 0,1027.37 c 0,6.72 2.30469,12.36 6.95313,17.05 4.66797,4.69 10.33207,6.95 17.10937,6.95 6.6797,0 12.4023,-2.26 17.0313,-6.95 4.6679,-4.69 7.0117,-10.33 7.0117,-17.05 v -38.011 c 16.5234,18.091 36.4258,32.971 59.6875,44.611 23.281,11.66 48.574,17.4 76.055,17.4 8.261,0 14.843,-2.26 19.726,-6.95 4.961,-4.69 7.344,-10.33 7.344,-17.05 0,-6.7 -2.383,-12.41 -7.344,-17.09 -4.883,-4.61 -11.465,-6.98 -19.726,-6.98 -18.653,0 -35.957,-3.628 -52.032,-10.816 C 115.801,985.18 101.719,975.375 89.5703,962.953 77.4414,950.551 67.5781,936.352 60.0977,920.316 52.5781,904.262 48.6328,887.484 48.1055,869.867 V 698.461 c 0,-6.641 -2.3438,-12.383 -7.0117,-16.992 -4.629,-4.688 -10.3516,-7.031 -17.0313,-7.031 -6.7773,0 -12.4414,2.343 -17.10937,7.031 C 2.30469,686.078 0,691.82 0,698.461 v 328.909" /><path
         id="path16"
         style="fill:#cd1e25;fill-opacity:1;fill-rule:nonzero;stroke:none"
         d="m 354.707,1001.04 c -19.141,0 -37.129,-3.673 -53.926,-10.899 -16.777,-7.207 -31.465,-17.188 -44.179,-29.883 -12.715,-12.695 -22.637,-27.539 -29.864,-44.57 -7.265,-17.051 -10.84,-35.176 -10.84,-54.278 0,-19.101 3.575,-37.168 10.84,-53.965 7.227,-16.797 17.149,-31.543 29.864,-44.179 12.714,-12.715 27.402,-22.657 44.179,-29.864 16.797,-7.207 34.785,-10.859 53.926,-10.859 19.16,0 37.266,3.652 54.336,10.859 17.07,7.207 31.875,17.149 44.59,29.864 12.656,12.636 22.637,27.382 29.844,44.179 7.207,16.797 10.878,34.864 10.878,53.965 0,19.102 -3.671,37.227 -10.878,54.278 -7.207,17.031 -17.188,31.875 -29.844,44.57 -12.715,12.695 -27.52,22.676 -44.59,29.883 -17.07,7.226 -35.176,10.899 -54.336,10.899 z m 1.563,48.81 c 24.804,0 48.515,-5.04 70.957,-15.14 22.558,-10.1 42.285,-23.63 59.394,-40.741 17.031,-17.031 30.567,-36.934 40.664,-59.746 10.098,-22.637 15.117,-47.012 15.117,-72.813 0,-25.41 -4.922,-49.316 -14.746,-71.777 -9.804,-22.539 -23.125,-42.305 -39.922,-59.336 -16.816,-17.07 -36.543,-30.508 -59.316,-40.391 -22.773,-9.765 -47.344,-14.668 -73.711,-14.668 -25.82,0 -50,4.649 -72.5,13.965 -22.5,9.258 -42.266,22.168 -59.277,38.75 -17.129,16.563 -30.567,36.211 -40.371,58.945 -9.844,22.774 -14.746,47.598 -14.746,74.512 0,25.801 4.746,49.981 14.335,72.481 9.59,22.5 22.735,42.148 39.571,58.945 16.777,16.774 36.679,30.254 59.687,40.334 23.047,10.06 48.008,15.64 74.864,16.68" /><path
         id="path18"
         style="fill:#cd1e25;fill-opacity:1;fill-rule:nonzero;stroke:none"
         d="m 751.191,1001.04 c -19.14,0 -37.148,-3.673 -53.945,-10.899 -16.816,-7.207 -31.543,-17.188 -44.199,-29.883 -12.676,-12.695 -22.656,-27.539 -29.883,-44.57 -7.187,-17.051 -10.82,-35.176 -10.82,-54.278 0,-19.101 3.633,-37.168 10.82,-53.965 7.227,-16.797 17.207,-31.543 29.883,-44.179 12.656,-12.715 27.383,-22.657 44.199,-29.864 16.797,-7.207 34.805,-10.859 53.945,-10.859 19.102,0 37.207,3.652 54.18,10.859 17.149,7.207 31.973,17.149 44.707,29.864 12.598,12.636 22.598,27.382 29.824,44.179 7.227,16.797 10.86,34.864 10.86,53.965 0,19.102 -3.633,37.227 -10.86,54.278 -7.226,17.031 -17.226,31.875 -29.824,44.57 -12.734,12.695 -27.558,22.676 -44.707,29.883 -16.973,7.226 -35.078,10.899 -54.18,10.899 z m 1.524,48.81 c 24.785,0 48.476,-5.04 70.937,-15.14 22.52,-10.1 42.286,-23.63 59.375,-40.741 17.032,-17.031 30.645,-36.934 40.664,-59.746 10.098,-22.637 15.196,-47.012 15.196,-72.813 0,-25.41 -4.942,-49.316 -14.785,-71.777 -9.805,-22.539 -23.106,-42.305 -39.922,-59.336 -16.797,-17.07 -36.543,-30.508 -59.336,-40.391 -22.774,-9.765 -47.344,-14.668 -73.653,-14.668 -25.878,0 -50.039,4.649 -72.539,13.965 -22.5,9.258 -42.304,22.168 -59.316,38.75 -17.09,16.563 -30.566,36.211 -40.293,58.945 -9.902,22.774 -14.805,47.598 -14.805,74.512 0,25.801 4.727,49.981 14.297,72.481 9.57,22.5 22.813,42.148 39.61,58.945 16.757,16.774 36.64,30.254 59.687,40.334 23.008,10.06 48.008,15.64 74.883,16.68" /><path
         id="path20"
         style="fill:#cd1e25;fill-opacity:1;fill-rule:nonzero;stroke:none"
         d="m 964.082,1027.37 c 0,6.72 2.285,12.36 7.031,17.05 4.649,4.69 10.293,6.95 17.11,6.95 6.64,0 12.367,-2.26 16.957,-6.95 4.68,-4.69 7.03,-10.33 7.03,-17.05 v -8.52 c 8.79,8.75 20.27,16.72 34.53,24.03 14.2,7.14 28.83,10.83 43.83,10.83 21.7,0 41.32,-4.8 58.96,-14.35 17.56,-9.53 31.99,-22.38 43.34,-38.32 11.97,15.94 26.66,28.79 44.3,38.32 17.54,9.55 37.19,14.35 58.88,14.35 17.58,0 34.16,-3.37 49.67,-10.05 15.53,-6.78 28.95,-15.8 40.35,-27.15 11.33,-11.37 20.38,-24.807 27.13,-40.315 6.7,-15.527 10.08,-32.09 10.08,-49.648 V 698.461 c 0,-6.641 -2.28,-12.383 -6.99,-16.992 -4.65,-4.688 -10.37,-7.031 -17.01,-7.031 -6.76,0 -12.46,2.343 -17.09,7.031 -4.63,4.609 -7.01,10.351 -7.01,16.992 v 228.086 c 0,10.84 -2.05,21.016 -6.2,30.605 -4.19,9.571 -9.78,17.989 -17.07,25.215 -7.28,7.227 -15.68,12.93 -25.19,17.051 -9.61,4.162 -19.79,6.252 -30.67,6.252 -10.87,0 -21.03,-2.09 -30.64,-6.252 -9.53,-4.121 -17.85,-9.824 -24.8,-17.051 -6.94,-7.226 -12.52,-15.644 -16.68,-25.215 -4.13,-9.589 -6.14,-19.765 -6.14,-30.605 V 698.461 c 0,-6.641 -2.42,-12.383 -7.07,-16.992 -4.61,-4.688 -10.31,-7.031 -16.99,-7.031 -6.8,0 -12.42,2.343 -17.13,7.031 -4.57,4.609 -6.93,10.351 -6.93,16.992 v 228.086 c -1.06,22.695 -9.22,41.582 -24.44,56.601 -15.31,14.981 -33.51,22.522 -54.66,22.522 -21.8,0 -39.96,-7.365 -54.71,-22.131 -14.75,-14.746 -22.64,-32.734 -23.65,-53.906 V 698.461 c 0,-6.641 -2.35,-12.383 -7.03,-16.992 -4.59,-4.688 -10.317,-7.031 -16.957,-7.031 -6.817,0 -12.461,2.343 -17.11,7.031 -4.746,4.609 -7.031,10.351 -7.031,16.992 v 328.909" /><path
         id="path22"
         style="fill:#cd1e25;fill-opacity:1;fill-rule:nonzero;stroke:none"
         d="m 11.1328,521.254 c 0,12.832 2.5195,23.535 7.6367,32.324 5.1172,8.75 11.836,15.801 20.293,21.348 8.3008,5.469 17.832,9.336 28.3789,11.738 10.6055,2.344 21.1133,3.516 31.7774,3.516 8.6912,0 18.0272,-0.996 27.8712,-2.989 9.844,-2.05 18.945,-4.961 27.324,-9.003 8.418,-3.985 15.371,-8.985 20.82,-14.825 5.43,-5.82 8.204,-12.773 8.204,-20.761 0,-4.024 -1.368,-7.911 -4.161,-11.758 -2.675,-3.848 -7.148,-5.742 -13.3,-5.742 -6.973,0 -12.266,4.023 -15.918,12.011 -3.262,6.934 -9.668,12.129 -19.141,15.586 -9.492,3.477 -20.039,5.156 -31.6992,5.156 -6.25,0 -12.5782,-0.39 -18.8672,-1.308 -6.4453,-0.859 -12.1875,-2.793 -17.2852,-5.449 -5.1172,-2.735 -9.4336,-6.563 -12.8906,-11.192 -3.418,-4.785 -5.1563,-10.937 -5.1563,-18.652 0,-5.508 1.7383,-10.117 5.1563,-14.258 3.457,-3.945 7.8906,-7.305 13.164,-10.098 5.3125,-2.695 11.1524,-4.882 17.5196,-6.289 6.3867,-1.425 12.5195,-2.656 18.3594,-3.828 13.4762,-2.129 26.1132,-5.351 37.9692,-9.57 11.816,-4.199 22.285,-9.531 31.191,-16.133 8.945,-6.523 16.074,-14.414 21.406,-23.613 5.215,-9.024 7.852,-19.57 7.852,-31.582 0,-12.07 -2.559,-23.145 -7.637,-33.164 -5.078,-10.02 -12.129,-18.574 -21.016,-25.664 -9.004,-7.11 -19.433,-12.578 -31.504,-16.465 -12.07,-3.809 -24.785,-5.801 -38.2612,-5.801 -22.9688,0 -43.1446,5.332 -60.4688,15.977 -17.3437,10.566 -28.88672,25.156 -34.78516,43.73 -0.33203,1.152 -0.52734,2.813 -0.52734,4.922 0,4.746 1.52344,8.906 4.66797,12.598 3.12503,3.632 7.20703,5.507 12.32423,5.507 4.0039,0 7.5391,-1.21 10.6445,-3.574 3.0664,-2.402 5.5274,-5.625 7.3828,-9.629 4.7266,-11.64 12.8711,-20.488 24.3555,-26.465 11.4648,-6.093 23.5742,-9.082 36.4063,-9.082 17.8322,0 33.0472,4.102 45.6642,12.247 12.558,8.261 18.808,19.804 18.808,34.863 0,12.012 -6.171,22.207 -18.554,30.586 -12.383,8.379 -27.735,13.867 -45.9182,16.367 -26.2891,3.672 -47.5586,10.879 -63.7696,21.68 -16.2304,10.722 -24.3164,26.328 -24.3164,46.738" /><path
         id="path24"
         style="fill:#cd1e25;fill-opacity:1;fill-rule:nonzero;stroke:none"
         d="m 430.137,474.828 c -2.149,11.289 -6.211,21.817 -11.992,31.699 -5.86,9.825 -13.086,18.282 -21.622,25.43 -8.632,7.07 -18.281,12.754 -29.062,16.973 -10.703,4.16 -22.09,6.23 -34.102,6.23 -12.089,0 -23.476,-2.07 -34.257,-6.23 -10.723,-4.219 -20.43,-9.903 -28.946,-16.973 -8.574,-7.148 -15.683,-15.605 -21.426,-25.43 -5.546,-9.882 -9.492,-20.41 -11.699,-31.699 z M 236.504,440.805 c 1.836,-11.602 5.664,-22.461 11.484,-32.52 5.821,-10.019 13.008,-18.652 21.602,-25.918 8.555,-7.363 18.34,-13.047 29.258,-17.265 10.937,-4.161 22.422,-6.329 34.511,-6.329 13.418,0 25.996,2.461 37.696,7.383 11.699,4.864 22.05,11.797 31.191,20.508 3.281,3.32 7.324,4.961 12.07,4.961 4.688,0 8.711,-1.641 12.012,-4.961 3.262,-3.242 4.942,-7.305 4.942,-12.012 0,-4.746 -1.68,-8.73 -4.942,-11.953 -12.012,-13.594 -25.605,-23.105 -40.781,-28.828 -15.156,-5.566 -32.52,-8.437 -52.188,-8.437 -18.3,0 -35.312,3.281 -51.191,9.863 -15.801,6.543 -29.824,15.625 -41.836,27.402 -12.09,11.621 -21.562,25.449 -28.496,41.485 -6.856,16.113 -10.332,33.574 -10.332,52.5 0,18.242 3.359,35.332 10.098,51.171 6.738,15.918 16.113,29.708 27.91,41.602 11.836,11.816 25.918,21.348 42.109,28.477 16.211,7.05 33.789,10.976 52.832,11.679 17.07,0 33.613,-3.437 49.512,-10.371 15.859,-6.894 29.765,-16.406 41.836,-28.418 12.031,-12.051 21.699,-26.015 28.984,-41.875 7.266,-15.84 10.938,-32.89 10.938,-51.113 0,-5.488 -1.875,-9.648 -5.508,-12.578 -3.633,-2.93 -7.442,-4.453 -11.485,-4.453 H 236.504" /><path
         id="path26"
         style="fill:#cd1e25;fill-opacity:1;fill-rule:nonzero;stroke:none"
         d="m 479.355,573.773 c 0,4.786 1.641,8.75 4.903,12.032 3.34,3.281 7.285,4.961 12.09,4.961 4.726,0 8.769,-1.68 12.011,-4.961 3.282,-3.282 4.942,-7.246 4.942,-12.032 v -26.796 c 11.64,12.812 25.664,23.222 42.07,31.503 16.445,8.184 34.297,12.286 53.633,12.286 5.859,0 10.469,-1.68 13.984,-4.961 3.418,-3.282 5.157,-7.246 5.157,-12.032 0,-4.707 -1.739,-8.75 -5.157,-11.992 -3.515,-3.281 -8.125,-4.941 -13.984,-4.941 -13.164,0 -25.332,-2.539 -36.641,-7.637 -11.289,-5.156 -21.289,-12.09 -29.804,-20.859 -8.614,-8.692 -15.508,-18.77 -20.782,-30.039 -5.312,-11.309 -8.164,-23.203 -8.476,-35.586 V 341.84 c 0,-4.746 -1.66,-8.731 -4.942,-12.07 -3.242,-3.262 -7.285,-4.981 -12.011,-4.981 -4.805,0 -8.75,1.719 -12.09,4.981 -3.262,3.339 -4.903,7.324 -4.903,12.07 v 231.933" /><path
         id="path28"
         style="fill:#cd1e25;fill-opacity:1;fill-rule:nonzero;stroke:none"
         d="m 819.629,580.395 c 1.094,2.871 3.066,5.214 6.016,7.05 2.89,1.856 6.015,2.735 9.257,2.735 5.118,0 9.219,-1.778 12.344,-5.196 3.106,-3.476 4.649,-7.187 4.649,-11.211 0,-2.187 -0.489,-4.394 -1.661,-6.543 -0.312,-0.703 -1.738,-4.472 -4.062,-11.171 -2.363,-6.817 -6.817,-18.77 -13.145,-35.879 -6.425,-17.129 -15.195,-40.391 -26.25,-69.766 -11.113,-29.355 -25.468,-66.621 -42.988,-111.855 -1.465,-4.043 -3.516,-7.325 -6.269,-9.844 -2.696,-2.578 -6.661,-3.926 -11.797,-3.926 -5.078,0 -9.2,1.582 -12.227,4.746 -3.144,3.106 -5.195,6.094 -6.348,9.024 -15.312,41.894 -28.281,77.402 -38.808,106.406 -10.625,29.004 -19.141,52.363 -25.703,70.058 -6.602,17.676 -11.328,30.489 -14.219,38.555 -2.93,7.969 -4.395,12.188 -4.395,12.559 -1.074,2.226 -1.66,4.726 -1.66,7.636 0,4.786 1.367,8.711 4.141,11.758 2.695,3.125 6.641,4.649 11.738,4.649 4.024,0 7.461,-0.879 10.43,-2.735 2.871,-1.836 4.844,-4.179 5.996,-7.05 l 71.055,-194.258 73.906,194.258" /><path
         id="path30"
         style="fill:#cd1e25;fill-opacity:1;fill-rule:nonzero;stroke:none"
         d="m 874.336,573.773 c 0,4.786 1.641,8.75 4.98,12.032 3.282,3.281 7.247,4.961 11.993,4.961 4.668,0 8.75,-1.68 12.031,-4.961 3.301,-3.282 4.941,-7.246 4.941,-12.032 V 341.84 c 0,-4.746 -1.64,-8.731 -4.941,-12.07 -3.281,-3.262 -7.363,-4.981 -12.031,-4.981 -4.746,0 -8.711,1.719 -11.993,4.981 -3.339,3.339 -4.98,7.324 -4.98,12.07 z m -5.449,78.262 c 0,6.192 2.187,11.465 6.562,15.84 4.395,4.375 9.629,6.563 15.86,6.563 6.23,0 11.484,-2.188 15.898,-6.563 4.356,-4.375 6.504,-9.648 6.504,-15.84 0,-6.23 -2.148,-11.582 -6.504,-15.84 -4.414,-4.453 -9.668,-6.64 -15.898,-6.64 -6.231,0 -11.465,2.187 -15.86,6.64 -4.375,4.258 -6.562,9.61 -6.562,15.84" /><path
         id="path32"
         style="fill:#cd1e25;fill-opacity:1;fill-rule:nonzero;stroke:none"
         d="m 1053.79,589.086 c 14.63,0 27.71,-2.168 39.39,-6.563 11.66,-4.335 21.68,-9.375 30.08,-15.078 8.38,-5.586 14.88,-11.269 19.45,-16.914 4.48,-5.625 6.82,-9.941 6.82,-12.871 0,-4.023 -1.66,-7.441 -4.94,-10.41 -3.32,-2.91 -6.95,-4.355 -10.96,-4.355 -4.7,0 -8.73,1.66 -12.07,4.98 -9.06,7.969 -19.47,14.492 -31.17,19.375 -11.62,4.961 -24.24,7.422 -37.71,7.422 -13.48,0 -26.18,-2.578 -38.05,-7.695 -11.8,-5.137 -22.189,-12.149 -31.134,-21.016 -8.945,-8.984 -15.937,-19.434 -21.035,-31.504 -5.137,-12.051 -7.676,-24.785 -7.676,-38.301 0,-13.515 2.539,-26.191 7.676,-38.027 5.098,-11.816 12.09,-22.246 21.035,-31.172 8.945,-8.906 19.334,-15.937 31.134,-21.035 11.87,-5.156 24.57,-7.676 38.05,-7.676 13.47,0 26.09,2.481 37.71,7.383 11.7,4.922 22.11,11.777 31.17,20.508 3.34,3.281 7.37,4.98 12.07,4.98 4.34,0 8.26,-1.64 11.8,-4.687 3.44,-3.106 5.23,-7.071 5.23,-11.778 0,-2.929 -2.16,-7.168 -6.36,-12.89 -4.14,-5.625 -10.49,-11.133 -18.89,-16.66 -8.34,-5.469 -18.65,-10.176 -30.9,-14.219 -12.19,-4.043 -26.09,-6.094 -41.83,-6.094 -18.29,0 -35.26,3.359 -51.16,9.902 -15.836,6.622 -29.743,15.704 -41.813,27.364 -12.09,11.718 -21.543,25.586 -28.477,41.601 -6.933,16.055 -10.39,33.516 -10.39,52.5 0,18.262 3.398,35.313 10.137,51.172 6.757,15.84 16.035,29.668 27.871,41.602 11.875,11.836 25.898,21.269 42.112,28.437 16.21,7.129 33.84,10.938 52.83,11.719" /><path
         id="path34"
         style="fill:#cd1e25;fill-opacity:1;fill-rule:nonzero;stroke:none"
         d="m 1384.22,474.828 c -2.19,11.289 -6.19,21.817 -12.03,31.699 -5.84,9.825 -13.05,18.282 -21.64,25.43 -8.6,7.07 -18.25,12.754 -28.97,16.973 -10.8,4.16 -22.15,6.23 -34.22,6.23 -12.01,0 -23.43,-2.07 -34.22,-6.23 -10.7,-4.219 -20.39,-9.903 -28.92,-16.973 -8.61,-7.148 -15.74,-15.605 -21.35,-25.43 -5.66,-9.882 -9.65,-20.41 -11.78,-31.699 z m -193.69,-34.023 c 1.83,-11.602 5.62,-22.461 11.48,-32.52 5.84,-10.019 13.03,-18.652 21.66,-25.918 8.48,-7.363 18.34,-13.047 29.24,-17.265 10.92,-4.161 22.44,-6.329 34.45,-6.329 13.48,0 26.08,2.461 37.8,7.383 11.62,4.864 22.05,11.797 31.15,20.508 3.3,3.32 7.32,4.961 12.03,4.961 4.69,0 8.73,-1.641 11.99,-4.961 3.28,-3.242 4.98,-7.305 4.98,-12.012 0,-4.746 -1.7,-8.73 -4.98,-11.953 -11.99,-13.594 -25.6,-23.105 -40.7,-28.828 -15.12,-5.566 -32.58,-8.437 -52.27,-8.437 -18.26,0 -35.27,3.281 -51.09,9.863 -15.88,6.543 -29.9,15.625 -41.89,27.402 -12.04,11.621 -21.57,25.449 -28.42,41.485 -7.01,16.113 -10.45,33.574 -10.45,52.5 0,18.242 3.42,35.332 10.1,51.171 6.79,15.918 16.09,29.708 27.96,41.602 11.8,11.816 25.82,21.348 42.11,28.477 16.21,7.05 33.79,10.976 52.82,11.679 17.14,0 33.63,-3.437 49.45,-10.371 15.88,-6.894 29.8,-16.406 41.82,-28.418 12.12,-12.051 21.73,-26.015 29.04,-41.875 7.26,-15.84 10.94,-32.89 10.94,-51.113 0,-5.488 -1.82,-9.648 -5.47,-12.578 -3.64,-2.93 -7.46,-4.453 -11.51,-4.453 h -212.24" /><path
         id="path36"
         style="fill:#949595;fill-opacity:1;fill-rule:nonzero;stroke:none"
         d="m 1901.35,777.23 c 27.01,1.504 50.04,11.973 69.14,31.485 19.1,19.473 28.65,43.047 28.65,70.781 0,28.457 -9.96,52.637 -29.76,72.52 -19.81,19.804 -44.07,29.765 -72.43,29.765 -28.57,0 -52.73,-9.961 -72.54,-29.765 -19.86,-19.883 -29.78,-43.692 -29.78,-71.387 0,-10.508 -3.38,-18.926 -10.12,-25.254 -6.72,-6.445 -15.35,-9.57 -25.9,-9.57 -10.47,0 -18.9,3.125 -25.19,9.57 -6.43,6.328 -9.61,14.746 -9.61,25.254 0,23.144 4.53,45.293 13.51,66.269 8.99,20.997 21.29,39.375 37.11,55.102 15.67,15.76 34.07,28.08 55.08,37.07 20.86,8.98 43.42,13.51 67.44,13.51 23.91,0 46.35,-4.53 67.33,-13.51 20.97,-8.99 39.37,-21.31 55.11,-37.07 15.67,-15.727 28.13,-34.105 37.06,-55.102 9.02,-20.976 13.49,-43.457 13.49,-67.402 0,-26.953 -5.62,-51.894 -16.87,-74.746 -11.25,-22.891 -26.18,-42.109 -44.93,-57.871 33.68,-19.512 61.08,-46.231 82.06,-80.332 20.95,-34.102 31.46,-72.09 31.46,-114.102 0,-30.703 -5.98,-59.707 -17.97,-87.109 -11.97,-27.285 -28.08,-51.094 -48.3,-71.289 -20.33,-20.274 -44.08,-36.387 -71.37,-48.359 -27.4,-11.993 -56.36,-17.969 -87.07,-17.969 -30.8,0 -59.86,5.976 -87.13,17.969 -27.36,11.972 -51.21,28.085 -71.4,48.359 -20.18,20.195 -36.29,44.004 -48.32,71.289 -11.96,27.402 -18.01,56.406 -18.01,87.109 0,9.785 3.4,17.989 10.18,24.746 6.73,6.778 14.96,10.079 24.74,10.079 9.67,0 17.95,-3.301 24.69,-10.079 6.72,-6.757 10.18,-14.961 10.18,-24.746 0,-21.738 4.08,-41.953 12.22,-60.664 8.32,-18.711 19.4,-35.039 33.26,-48.926 13.85,-13.769 30.08,-24.902 48.83,-33.105 18.75,-8.281 38.97,-12.363 60.76,-12.363 20.88,0 40.96,4.082 60.06,12.363 19.1,8.203 35.57,19.336 49.51,33.105 13.83,13.887 24.85,30.215 33.11,48.926 8.26,18.711 12.38,38.926 12.38,60.664 0,20.957 -3.94,40.664 -11.83,58.965 -7.88,18.418 -18.48,34.492 -32.04,48.36 -13.45,13.847 -29.25,25.117 -47.18,33.75 -17.97,8.632 -37.5,13.281 -58.44,14.082 h -5.57 c -9.82,0 -18.04,3.359 -24.84,10.039 -6.68,6.738 -10.02,15.039 -10.02,24.746 0,9.726 3.34,17.949 10.02,24.707 6.8,6.777 15.02,10.136 24.84,10.136 h 4.4" /><path
         id="path38"
         style="fill:#949595;fill-opacity:1;fill-rule:nonzero;stroke:none"
         d="m 2385.92,745.766 c -23.99,0 -46.29,-4.571 -66.86,-13.516 -20.62,-8.965 -38.38,-21.133 -53.43,-36.523 -14.95,-15.352 -26.96,-33.477 -35.96,-54.473 -8.93,-20.957 -13.44,-43.086 -13.44,-66.328 0,-23.985 4.51,-46.27 13.44,-66.875 9,-20.625 21.01,-38.379 35.96,-53.36 15.05,-15 32.81,-26.953 53.43,-35.976 20.57,-8.965 42.87,-13.477 66.86,-13.477 23.16,0 45.35,4.512 66.27,13.477 21.03,9.023 39.2,20.976 54.51,35.976 15.39,14.981 27.52,32.735 36.56,53.36 9.01,20.605 13.46,42.89 13.46,66.875 0,23.242 -4.45,45.371 -13.46,66.328 -9.04,20.996 -21.17,39.121 -36.56,54.473 -15.31,15.39 -33.48,27.558 -54.51,36.523 -20.92,8.945 -43.11,13.516 -66.27,13.516 z m 11.25,291.014 c 3.69,5.27 8.2,9.18 13.42,11.86 5.27,2.63 10.95,3.94 16.87,3.94 10.55,0 18.75,-3.59 24.73,-10.74 5.99,-7.09 8.96,-15.14 8.96,-24.08 0,-6.78 -1.46,-12.78 -4.45,-18.049 L 2334.24,808.715 c 8.2,1.484 16.68,2.773 25.31,3.926 8.56,1.152 17.4,1.679 26.37,1.679 32.97,0 64.06,-6.211 93.28,-18.535 29.24,-12.383 54.67,-29.453 76.41,-51.191 21.71,-21.68 38.9,-47.207 51.68,-76.387 12.71,-29.199 19.16,-60.293 19.16,-93.281 0,-32.949 -6.45,-64.043 -19.16,-93.262 -12.78,-29.199 -29.97,-54.726 -51.68,-76.426 -21.74,-21.699 -47.17,-38.965 -76.41,-51.738 -29.22,-12.695 -60.31,-19.023 -93.28,-19.023 -33.05,0 -64.04,6.328 -93.32,19.023 -29.14,12.773 -54.65,30.039 -76.37,51.738 -21.74,21.7 -38.75,47.227 -51.15,76.426 -12.37,29.219 -18.46,60.313 -18.46,93.262 0,25.488 4.06,50.019 12.25,73.672 8.26,23.535 19.51,46.23 33.75,67.929 l 204.55,320.253" /><path
         id="path40"
         style="fill:#949595;fill-opacity:1;fill-rule:nonzero;stroke:none"
         d="m 2995.61,980.648 c -39.69,0 -77.13,-7.5 -112.31,-22.48 -35.25,-15.059 -65.78,-35.586 -91.62,-61.797 -25.84,-26.25 -46.29,-56.933 -61.29,-92.148 -14.94,-35.176 -22.4,-72.715 -22.4,-112.403 0,-39.726 7.46,-77.148 22.4,-112.402 15,-35.215 35.45,-65.762 61.29,-91.563 25.84,-25.839 56.37,-46.289 91.62,-61.289 35.18,-14.941 72.62,-22.441 112.31,-22.441 39.8,0 77.18,7.5 112.42,22.441 35.21,15 65.93,35.45 92.18,61.289 26.18,25.801 46.74,56.348 61.8,91.563 14.94,35.254 22.46,72.676 22.46,112.402 0,39.688 -7.52,77.227 -22.46,112.403 -15.06,35.215 -35.62,65.898 -61.8,92.148 -26.25,26.211 -56.97,46.738 -92.18,61.797 -35.24,14.98 -72.62,22.48 -112.42,22.48 z m 0,69.632 c 49.55,0 95.93,-9.34 139.41,-28.07 43.44,-18.73 81.44,-44.355 114.06,-77.011 32.56,-32.558 58.24,-70.586 76.96,-114.082 18.71,-43.398 28.14,-89.922 28.14,-139.297 0,-49.414 -9.43,-95.898 -28.14,-139.375 -18.72,-43.437 -44.4,-81.269 -76.96,-113.515 -32.62,-32.168 -70.62,-57.657 -114.06,-76.407 -43.48,-18.75 -89.86,-28.046 -139.41,-28.046 -49.42,0 -95.9,9.296 -139.34,28.046 -43.5,18.75 -81.29,44.239 -113.48,76.407 -32.2,32.246 -57.69,70.078 -76.44,113.515 -18.69,43.477 -28.01,89.961 -28.01,139.375 0,49.375 9.32,95.899 28.01,139.297 18.75,43.496 44.24,81.524 76.44,114.082 32.19,32.656 69.98,58.281 113.48,77.011 43.44,18.73 89.92,28.07 139.34,28.07" /><path
         id="path42"
         style="fill:none;stroke:#949595;stroke-width:32.71110153;stroke-linecap:round;stroke-linejoin:miter;stroke-miterlimit:4;stroke-dasharray:none;stroke-opacity:1"
         d="M 1551.62,1037.37 V 344.887" /><path
         id="path44"
         style="fill:#949595;fill-opacity:1;fill-rule:nonzero;stroke:none"
         d="m 3268.69,1001.74 c 0,-5.33 1.06,-10.291 3.11,-14.881 2.05,-4.57 4.68,-8.515 8.06,-11.855 3.4,-3.418 7.39,-6.074 11.92,-8.106 4.63,-2.07 9.53,-3.125 14.82,-3.125 5.1,0 9.96,1.055 14.75,3.125 4.59,2.032 8.55,4.688 11.95,8.106 3.36,3.34 6.11,7.285 8.13,11.855 2.03,4.59 3.02,9.551 3.02,14.881 0,5.04 -0.99,9.94 -3.02,14.65 -2.02,4.63 -4.77,8.63 -8.13,12.03 -3.4,3.36 -7.36,6.08 -11.95,8.13 -4.79,1.91 -9.65,3 -14.75,3 -5.29,0 -10.19,-1.09 -14.82,-3 -4.53,-2.05 -8.52,-4.77 -11.92,-8.13 -3.38,-3.4 -6.01,-7.4 -8.06,-12.03 -2.05,-4.71 -3.11,-9.61 -3.11,-14.65 z m -18.87,0 c 0,7.87 1.41,15.24 4.42,22.09 2.97,6.82 7.01,12.8 12.28,18.01 5.1,5.21 11.14,9.26 17.95,12.23 6.84,2.95 14.22,4.43 22.13,4.43 7.97,0 15.35,-1.48 22.15,-4.43 6.8,-2.97 12.79,-7.02 18.05,-12.23 5.15,-5.21 9.25,-11.19 12.16,-18.01 2.95,-6.85 4.42,-14.22 4.42,-22.09 0,-7.967 -1.47,-15.349 -4.42,-22.185 -2.91,-6.875 -7.01,-12.754 -12.16,-18.028 -5.26,-5.195 -11.25,-9.257 -18.05,-12.207 -6.8,-2.949 -14.18,-4.453 -22.15,-4.453 -7.91,0 -15.29,1.504 -22.13,4.453 -6.81,2.95 -12.85,7.012 -17.95,12.207 -5.27,5.274 -9.31,11.153 -12.28,18.028 -3.01,6.836 -4.42,14.218 -4.42,22.185" /><path
         id="path46"
         style="fill:#949595;fill-opacity:1;fill-rule:nonzero;stroke:none"
         d="m 14.668,123.988 c 0,3.262 0.5859,6.328 1.7968,9.2 1.1915,2.871 2.8907,5.39 5.0391,7.558 2.168,2.168 4.6875,3.867 7.5781,5.137 2.8516,1.25 5.9961,1.894 9.336,1.894 1.5625,0 2.8906,-0.566 3.9453,-1.64 1.0937,-1.055 1.6406,-2.403 1.6406,-3.965 0,-1.543 -0.5469,-2.891 -1.6406,-3.945 -1.0547,-1.094 -2.3828,-1.641 -3.9453,-1.641 -3.4766,0 -6.4453,-1.231 -8.9063,-3.691 -2.4609,-2.461 -3.6914,-5.391 -3.6914,-8.907 v -3.75 h 12.2461 c 1.5625,0 2.8711,-0.566 3.9453,-1.64 1.0938,-1.055 1.6211,-2.403 1.6211,-3.965 0,-1.543 -0.5273,-2.891 -1.6211,-3.945 -1.0742,-1.094 -2.3828,-1.641 -3.9453,-1.641 H 25.8203 V 38.3203 c 0,-1.582 -0.5273,-2.8711 -1.6211,-3.9609 -1.0742,-1.0703 -2.3828,-1.5977 -3.9648,-1.5977 -1.543,0 -2.8711,0.5274 -3.9453,1.5977 -1.0938,1.0898 -1.6211,2.3789 -1.6211,3.9609 V 109.047 H 7.28516 c -1.5625,0 -2.89063,0.547 -3.96485,1.641 -1.07422,1.054 -1.62109,2.402 -1.62109,3.945 0,1.562 0.54687,2.91 1.62109,3.965 1.07422,1.074 2.40235,1.64 3.96485,1.64 H 14.668 v 3.75" /><path
         id="path48"
         style="fill:#949595;fill-opacity:1;fill-rule:nonzero;stroke:none"
         d="m 78.9258,114.477 c 0,1.543 0.5469,2.851 1.6211,3.945 1.0742,1.094 2.4023,1.641 3.9648,1.641 1.543,0 2.8906,-0.547 3.9453,-1.641 1.0938,-1.094 1.6407,-2.402 1.6407,-3.945 V 65.1602 c 0,-2.9102 0.5468,-5.625 1.6992,-8.1993 1.1523,-2.582 2.6758,-4.832 4.5898,-6.7421 1.9141,-1.9297 4.1793,-3.4571 6.7583,-4.5079 2.578,-1.082 5.293,-1.6406 8.203,-1.6406 2.851,0 5.547,0.5586 8.086,1.6406 2.5,1.0508 4.707,2.5196 6.562,4.3282 1.875,1.7812 3.359,3.9297 4.492,6.3906 1.153,2.4609 1.758,5.0391 1.914,7.793 v 50.2543 c 0,1.543 0.528,2.851 1.602,3.945 1.094,1.094 2.422,1.641 3.965,1.641 1.543,0 2.871,-0.547 3.965,-1.641 1.074,-1.094 1.601,-2.402 1.601,-3.945 V 38.3203 c 0,-1.582 -0.527,-2.8711 -1.601,-3.9609 -1.094,-1.0703 -2.422,-1.5977 -3.965,-1.5977 -1.543,0 -2.871,0.5274 -3.965,1.5977 -1.074,1.0898 -1.602,2.3789 -1.602,3.9609 v 2.3516 c -2.773,-2.4024 -5.937,-4.3438 -9.55,-5.7617 -3.614,-1.4493 -7.442,-2.1485 -11.504,-2.1485 -4.453,0 -8.653,0.8203 -12.6175,2.5196 -3.9844,1.6601 -7.4024,3.9804 -10.3516,6.9101 -2.9297,2.9297 -5.2539,6.3867 -6.9141,10.3672 -1.7187,3.9297 -2.539,8.1484 -2.539,12.6016 v 49.3168" /><path
         id="path50"
         style="fill:#949595;fill-opacity:1;fill-rule:nonzero;stroke:none"
         d="m 182.793,114.633 c 0,1.562 0.527,2.91 1.602,3.965 1.093,1.074 2.421,1.64 3.984,1.64 1.562,0 2.891,-0.566 3.965,-1.64 1.074,-1.055 1.621,-2.403 1.621,-3.965 v -8.809 c 3.828,4.219 8.457,7.637 13.848,10.332 5.39,2.735 11.269,4.082 17.636,4.082 1.934,0 3.457,-0.566 4.61,-1.64 1.132,-1.055 1.679,-2.403 1.679,-3.965 0,-1.543 -0.547,-2.891 -1.679,-3.945 -1.153,-1.094 -2.676,-1.641 -4.61,-1.641 -4.297,0 -8.359,-0.82 -12.031,-2.52 -3.73,-1.66 -7.012,-3.925 -9.824,-6.8161 -2.832,-2.8906 -5.098,-6.1914 -6.856,-9.9218 -1.718,-3.711 -2.656,-7.6172 -2.773,-11.6797 V 38.3203 c 0,-1.582 -0.547,-2.8711 -1.621,-3.9609 -1.074,-1.0703 -2.403,-1.5977 -3.965,-1.5977 -1.563,0 -2.891,0.5274 -3.984,1.5977 -1.075,1.0898 -1.602,2.3789 -1.602,3.9609 v 76.3127" /><path
         id="path52"
         style="fill:#949595;fill-opacity:1;fill-rule:nonzero;stroke:none"
         d="m 267.93,114.633 c 0,1.562 0.527,2.91 1.621,3.965 1.074,1.074 2.383,1.64 3.945,1.64 1.563,0 2.871,-0.566 3.945,-1.64 1.094,-1.055 1.641,-2.403 1.641,-3.965 v -2.344 c 2.773,2.422 5.938,4.316 9.531,5.781 3.594,1.446 7.442,2.168 11.524,2.168 4.453,0 8.633,-0.84 12.578,-2.519 3.984,-1.699 7.422,-4.024 10.39,-6.953 2.93,-2.95 5.235,-6.368 6.915,-10.332 1.679,-3.9848 2.5,-8.184 2.5,-12.5981 V 38.3203 c 0,-1.582 -0.508,-2.8711 -1.602,-3.9609 -1.094,-1.0703 -2.402,-1.5977 -3.945,-1.5977 -1.563,0 -2.891,0.5274 -3.965,1.5977 -1.074,1.0898 -1.641,2.3789 -1.641,3.9609 v 49.5156 c 0,2.8711 -0.566,5.586 -1.699,8.1641 -1.133,2.5781 -2.656,4.844 -4.609,6.777 -1.895,1.895 -4.141,3.399 -6.719,4.473 -2.578,1.094 -5.313,1.621 -8.203,1.621 -2.891,0 -5.586,-0.527 -8.086,-1.621 -2.539,-1.074 -4.766,-2.5 -6.66,-4.297 -1.934,-1.816 -3.418,-3.9257 -4.512,-6.3866 -1.094,-2.4609 -1.68,-5.0976 -1.797,-7.8516 V 38.3203 c 0,-1.582 -0.547,-2.8711 -1.641,-3.9609 -1.074,-1.0703 -2.382,-1.5977 -3.945,-1.5977 -1.562,0 -2.871,0.5274 -3.945,1.5977 -1.094,1.0898 -1.621,2.3789 -1.621,3.9609 v 76.3127" /><path
         id="path54"
         style="fill:#949595;fill-opacity:1;fill-rule:nonzero;stroke:none"
         d="m 373.77,114.633 c 0,1.562 0.546,2.91 1.621,3.965 1.074,1.074 2.402,1.64 3.964,1.64 1.543,0 2.852,-0.566 3.946,-1.64 1.094,-1.055 1.64,-2.403 1.64,-3.965 V 38.3203 c 0,-1.582 -0.546,-2.8711 -1.64,-3.9609 -1.094,-1.0703 -2.403,-1.5977 -3.946,-1.5977 -1.562,0 -2.89,0.5274 -3.964,1.5977 -1.075,1.0898 -1.621,2.3789 -1.621,3.9609 z m -1.797,25.762 c 0,2.011 0.722,3.75 2.148,5.214 1.445,1.446 3.164,2.168 5.234,2.168 2.032,0 3.77,-0.722 5.196,-2.168 1.445,-1.464 2.187,-3.203 2.187,-5.214 0,-2.051 -0.742,-3.809 -2.187,-5.215 -1.426,-1.465 -3.164,-2.168 -5.196,-2.168 -2.07,0 -3.789,0.703 -5.234,2.168 -1.426,1.406 -2.148,3.164 -2.148,5.215" /><path
         id="path56"
         style="fill:#949595;fill-opacity:1;fill-rule:nonzero;stroke:none"
         d="m 438.223,142.172 c 0,1.562 0.547,2.91 1.621,3.965 1.074,1.074 2.402,1.64 3.965,1.64 1.543,0 2.851,-0.566 3.945,-1.64 1.094,-1.055 1.601,-2.403 1.601,-3.965 v -21.934 h 12.032 c 1.562,0 2.89,-0.566 4.004,-1.64 1.074,-1.055 1.64,-2.403 1.64,-3.965 0,-1.543 -0.566,-2.891 -1.64,-3.945 -1.114,-1.094 -2.442,-1.641 -4.004,-1.641 H 449.355 V 38.3203 c 0,-1.582 -0.507,-2.8711 -1.562,-3.9609 -1.055,-1.0703 -2.344,-1.5977 -3.906,-1.5977 -1.524,0 -2.852,0.5274 -3.907,1.5977 -1.054,1.0898 -1.562,2.3789 -1.562,3.9609 v 70.7267 h -12.031 c -1.563,0 -2.891,0.547 -4.004,1.641 -1.074,1.054 -1.621,2.402 -1.621,3.945 0,1.562 0.547,2.91 1.621,3.965 1.074,1.074 2.402,1.64 3.965,1.64 h 11.875 v 21.934" /><path
         id="path58"
         style="fill:#949595;fill-opacity:1;fill-rule:nonzero;stroke:none"
         d="m 501.387,114.477 c 0,1.543 0.547,2.851 1.621,3.945 1.074,1.094 2.402,1.641 3.965,1.641 1.543,0 2.89,-0.547 3.945,-1.641 1.094,-1.094 1.641,-2.402 1.641,-3.945 V 65.1602 c 0,-2.9102 0.546,-5.625 1.699,-8.1993 1.152,-2.582 2.676,-4.832 4.59,-6.7421 1.914,-1.9297 4.179,-3.4571 6.757,-4.5079 2.579,-1.082 5.293,-1.6406 8.204,-1.6406 2.851,0 5.546,0.5586 8.086,1.6406 2.5,1.0508 4.707,2.5196 6.562,4.3282 1.875,1.7812 3.359,3.9297 4.492,6.3906 1.153,2.4609 1.758,5.0391 1.914,7.793 v 50.2543 c 0,1.543 0.528,2.851 1.602,3.945 1.094,1.094 2.422,1.641 3.965,1.641 1.543,0 2.871,-0.547 3.965,-1.641 1.074,-1.094 1.601,-2.402 1.601,-3.945 V 38.3203 c 0,-1.582 -0.527,-2.8711 -1.601,-3.9609 -1.094,-1.0703 -2.422,-1.5977 -3.965,-1.5977 -1.543,0 -2.871,0.5274 -3.965,1.5977 -1.074,1.0898 -1.602,2.3789 -1.602,3.9609 v 2.3516 c -2.773,-2.4024 -5.937,-4.3438 -9.55,-5.7617 -3.614,-1.4493 -7.442,-2.1485 -11.504,-2.1485 -4.454,0 -8.653,0.8203 -12.618,2.5196 -3.984,1.6601 -7.402,3.9804 -10.351,6.9101 -2.93,2.9297 -5.254,6.3867 -6.914,10.3672 -1.719,3.9297 -2.539,8.1484 -2.539,12.6016 v 49.3168" /><path
         id="path60"
         style="fill:#949595;fill-opacity:1;fill-rule:nonzero;stroke:none"
         d="m 605.254,114.633 c 0,1.562 0.527,2.91 1.601,3.965 1.094,1.074 2.422,1.64 3.985,1.64 1.562,0 2.89,-0.566 3.965,-1.64 1.074,-1.055 1.621,-2.403 1.621,-3.965 v -8.809 c 3.828,4.219 8.457,7.637 13.847,10.332 5.391,2.735 11.27,4.082 17.637,4.082 1.934,0 3.457,-0.566 4.61,-1.64 1.132,-1.055 1.679,-2.403 1.679,-3.965 0,-1.543 -0.547,-2.891 -1.679,-3.945 -1.153,-1.094 -2.676,-1.641 -4.61,-1.641 -4.297,0 -8.359,-0.82 -12.031,-2.52 -3.731,-1.66 -7.012,-3.925 -9.824,-6.8161 -2.832,-2.8906 -5.098,-6.1914 -6.856,-9.9218 -1.719,-3.711 -2.656,-7.6172 -2.773,-11.6797 V 38.3203 c 0,-1.582 -0.547,-2.8711 -1.621,-3.9609 -1.075,-1.0703 -2.403,-1.5977 -3.965,-1.5977 -1.563,0 -2.891,0.5274 -3.985,1.5977 -1.074,1.0898 -1.601,2.3789 -1.601,3.9609 v 76.3127" /><path
         id="path62"
         style="fill:#949595;fill-opacity:1;fill-rule:nonzero;stroke:none"
         d="m 758.242,82.0547 c -0.722,3.7305 -2.051,7.1875 -3.965,10.4687 -1.914,3.2227 -4.297,6.0157 -7.109,8.3596 -2.813,2.344 -6.016,4.18 -9.551,5.586 -3.535,1.347 -7.285,2.051 -11.25,2.051 -3.965,0 -7.715,-0.704 -11.25,-2.051 -3.535,-1.406 -6.699,-3.242 -9.512,-5.586 -2.851,-2.3439 -5.156,-5.1369 -7.031,-8.3596 -1.855,-3.2812 -3.144,-6.7382 -3.867,-10.4687 z m -63.73,-11.1524 c 0.586,-3.8476 1.855,-7.4023 3.789,-10.7226 1.914,-3.2813 4.277,-6.1484 7.109,-8.5586 2.813,-2.4023 6.016,-4.2695 9.61,-5.6602 3.613,-1.3711 7.382,-2.0703 11.347,-2.0703 4.453,0 8.574,0.8203 12.422,2.461 3.848,1.5781 7.266,3.8672 10.254,6.7382 1.094,1.0508 2.402,1.6211 3.984,1.6211 1.563,0 2.871,-0.5703 3.946,-1.6211 1.093,-1.0703 1.621,-2.3984 1.621,-3.9804 0,-1.5313 -0.528,-2.8789 -1.621,-3.9297 -3.946,-4.4492 -8.438,-7.6211 -13.399,-9.4492 -5,-1.8594 -10.703,-2.8008 -17.207,-2.8008 -5.996,0 -11.601,1.0586 -16.816,3.2305 -5.215,2.1601 -9.805,5.1484 -13.77,9.0195 -3.965,3.8086 -7.09,8.3789 -9.375,13.6523 -2.285,5.2735 -3.398,11.0352 -3.398,17.2852 0,6.0156 1.074,11.6016 3.301,16.8164 2.226,5.2539 5.273,9.7854 9.218,13.7114 3.887,3.867 8.477,7.011 13.848,9.355 5.332,2.344 11.133,3.633 17.363,3.867 5.625,0 11.055,-1.152 16.289,-3.437 5.235,-2.285 9.805,-5.391 13.789,-9.336 3.946,-3.965 7.11,-8.5549 9.512,-13.7893 2.402,-5.1953 3.613,-10.8008 3.613,-16.8359 0,-1.7969 -0.586,-3.1641 -1.796,-4.1407 -1.211,-0.957 -2.461,-1.4258 -3.79,-1.4258 h -69.843" /><path
         id="path64"
         style="fill:#cd1e25;fill-opacity:1;fill-rule:nonzero;stroke:none"
         d="m 995.488,90.1797 c 2.149,0 4.102,-0.4297 5.822,-1.2891 1.76,-0.8203 3.26,-1.9336 4.53,-3.3203 1.25,-1.3672 2.23,-2.8906 2.85,-4.5898 0.69,-1.6992 1.02,-3.2813 1.02,-4.8633 0,-3.8281 -1.41,-7.0899 -4.22,-9.7852 -2.85,-2.7148 -6.174,-4.082 -10.002,-4.082 -3.828,0 -7.109,1.3672 -9.804,4.082 -2.696,2.6953 -4.063,5.9571 -4.063,9.7852 0,3.9844 1.406,7.3047 4.219,10 2.812,2.7148 6.055,4.0625 9.648,4.0625" /><path
         id="path66"
         style="fill:#949595;fill-opacity:1;fill-rule:nonzero;stroke:none"
         d="m 1296.82,76.1172 c -0.24,4.6875 -1.25,9.0234 -2.97,12.9492 -1.76,3.9844 -4.06,7.3828 -6.96,10.293 -2.85,2.8516 -6.23,5.1176 -10.07,6.7186 -3.83,1.621 -7.89,2.442 -12.23,2.442 -4.43,0 -8.65,-0.821 -12.62,-2.52 -3.94,-1.699 -7.4,-3.984 -10.33,-6.9141 -2.95,-2.9687 -5.25,-6.3867 -6.93,-10.3711 -1.68,-3.9648 -2.54,-8.1445 -2.54,-12.5976 0,-4.4531 0.86,-8.6133 2.54,-12.5 1.68,-3.9063 3.98,-7.3086 6.93,-10.2774 2.93,-2.9492 6.39,-5.2304 10.33,-6.9296 3.97,-1.6602 8.19,-2.5196 12.62,-2.5196 4.45,0 8.59,0.8594 12.5,2.5196 3.91,1.6992 7.32,3.9804 10.25,6.9296 2.95,2.9688 5.28,6.3711 6.94,10.2774 1.68,3.8867 2.54,8.0469 2.54,12.5 z m 0,66.0548 c 0,1.562 0.5,2.91 1.6,3.965 1.09,1.074 2.4,1.64 3.94,1.64 1.6,0 2.91,-0.566 3.99,-1.64 1.05,-1.055 1.62,-2.403 1.62,-3.965 V 38.3203 c 0,-1.582 -0.57,-2.8711 -1.62,-3.9609 -1.08,-1.0703 -2.39,-1.5977 -3.99,-1.5977 -1.54,0 -2.85,0.5274 -3.94,1.5977 -1.1,1.0898 -1.6,2.3789 -1.6,3.9609 v 8.4414 l -1.62,-1.582 c -3.99,-3.8711 -8.58,-6.8594 -13.85,-9.0195 -5.31,-2.1719 -10.88,-3.2305 -16.76,-3.2305 -6.13,0 -11.82,1.1211 -17.11,3.3984 -5.27,2.293 -9.84,5.3907 -13.79,9.3828 -3.89,3.961 -6.95,8.5508 -9.26,13.7657 -2.26,5.2148 -3.41,10.7812 -3.41,16.6406 0,6.0156 1.17,11.6601 3.51,16.9336 2.35,5.2734 5.51,9.9022 9.47,13.8472 3.95,3.965 8.56,7.129 13.75,9.473 5.24,2.344 10.71,3.496 16.49,3.496 6.7,-0.234 12.81,-1.972 18.36,-5.137 5.51,-3.164 10.25,-6.914 14.22,-11.25 v 38.692" /><path
         id="path68"
         style="fill:#949595;fill-opacity:1;fill-rule:nonzero;stroke:none"
         d="m 1418.65,82.0547 c -0.74,3.7305 -2.05,7.1875 -3.94,10.4687 -1.96,3.2227 -4.32,6.0157 -7.13,8.3596 -2.81,2.344 -6,4.18 -9.55,5.586 -3.56,1.347 -7.31,2.051 -11.25,2.051 -3.95,0 -7.7,-0.704 -11.25,-2.051 -3.56,-1.406 -6.72,-3.242 -9.53,-5.586 -2.84,-2.3439 -5.16,-5.1369 -7.04,-8.3596 -1.83,-3.2812 -3.12,-6.7382 -3.86,-10.4687 z m -63.71,-11.1524 c 0.59,-3.8476 1.84,-7.4023 3.77,-10.7226 1.9,-3.2813 4.28,-6.1484 7.13,-8.5586 2.81,-2.4023 6,-4.2695 9.61,-5.6602 3.59,-1.3711 7.38,-2.0703 11.33,-2.0703 4.45,0 8.59,0.8203 12.42,2.461 3.83,1.5781 7.26,3.8672 10.25,6.7382 1.08,1.0508 2.41,1.6211 3.99,1.6211 1.54,0 2.87,-0.5703 3.96,-1.6211 1.08,-1.0703 1.6,-2.3984 1.6,-3.9804 0,-1.5313 -0.52,-2.8789 -1.6,-3.9297 -3.96,-4.4492 -8.44,-7.6211 -13.44,-9.4492 -4.96,-1.8594 -10.68,-2.8008 -17.18,-2.8008 -6.02,0 -11.6,1.0586 -16.82,3.2305 -5.21,2.1601 -9.82,5.1484 -13.77,9.0195 -3.94,3.8086 -7.09,8.3789 -9.37,13.6523 -2.29,5.2735 -3.4,11.0352 -3.4,17.2852 0,6.0156 1.09,11.6016 3.32,16.8164 2.22,5.2539 5.27,9.7854 9.18,13.7114 3.9,3.867 8.51,7.011 13.87,9.355 5.33,2.344 11.13,3.633 17.38,3.867 5.62,0 11.03,-1.152 16.29,-3.437 5.19,-2.285 9.76,-5.391 13.75,-9.336 3.96,-3.965 7.13,-8.5549 9.53,-13.7893 2.4,-5.1953 3.59,-10.8008 3.59,-16.8359 0,-1.7969 -0.58,-3.1641 -1.78,-4.1407 -1.19,-0.957 -2.46,-1.4258 -3.76,-1.4258 h -69.85" /><path
         id="path70"
         style="fill:#949595;fill-opacity:1;fill-rule:nonzero;stroke:none"
         d="m 1464.55,97.3672 c 0,4.1798 0.86,7.7538 2.54,10.6248 1.66,2.871 3.89,5.215 6.64,7.031 2.75,1.758 5.9,3.047 9.38,3.868 3.47,0.761 6.95,1.172 10.43,1.172 2.87,0 5.93,-0.352 9.17,-0.997 3.25,-0.683 6.24,-1.66 9.03,-2.988 2.73,-1.328 5.04,-2.93 6.81,-4.863 1.82,-1.934 2.7,-4.199 2.7,-6.817 0,-1.328 -0.45,-2.617 -1.35,-3.906 -0.9,-1.2303 -2.38,-1.8748 -4.39,-1.8748 -2.29,0 -4.05,1.3281 -5.26,3.9848 -1.05,2.265 -3.16,3.984 -6.29,5.097 -3.1,1.172 -6.6,1.739 -10.42,1.739 -2.06,0 -4.11,-0.157 -6.22,-0.45 -2.11,-0.332 -3.98,-0.918 -5.66,-1.816 -1.68,-0.879 -3.09,-2.109 -4.24,-3.692 -1.15,-1.542 -1.7,-3.6128 -1.7,-6.1128 0,-1.7969 0.55,-3.3789 1.7,-4.668 1.15,-1.3476 2.58,-2.4609 4.34,-3.3398 1.74,-0.8985 3.65,-1.5821 5.74,-2.0703 2.11,-0.5078 4.12,-0.918 6.04,-1.2696 4.45,-0.7031 8.61,-1.7578 12.5,-3.164 3.9,-1.3477 7.34,-3.1446 10.27,-5.2735 2.95,-2.1679 5.29,-4.7461 7.03,-7.7539 1.72,-3.0273 2.6,-6.4843 2.6,-10.4297 0,-3.9687 -0.84,-7.5976 -2.52,-10.8984 -1.68,-3.3203 -3.99,-6.1289 -6.96,-8.4805 -2.92,-2.3398 -6.36,-4.1406 -10.33,-5.3906 -3.96,-1.25 -8.14,-1.8672 -12.59,-1.8672 -7.56,0 -14.18,1.7188 -19.89,5.2071 -5.7,3.4609 -9.49,8.2617 -11.44,14.4023 -0.12,0.3672 -0.16,0.8984 -0.16,1.5977 0,1.582 0.49,2.9726 1.52,4.1601 1.02,1.1719 2.37,1.7774 4.03,1.7774 1.33,0 2.5,-0.3711 3.51,-1.1329 1.04,-0.8242 1.86,-1.832 2.44,-3.164 1.55,-3.8711 4.24,-6.7383 8.03,-8.7305 3.79,-1.9883 7.78,-2.9883 11.96,-2.9883 5.89,0 10.89,1.3477 15.03,4.0391 4.13,2.7187 6.22,6.5508 6.22,11.4687 0,3.9454 -2.08,7.2852 -6.14,10.0782 -4.06,2.7343 -9.1,4.5312 -15.11,5.3906 -8.64,1.1914 -15.63,3.5547 -20.98,7.1094 -5.33,3.5156 -8.01,8.6718 -8.01,15.3906" /><path
         id="path72"
         style="fill:#949595;fill-opacity:1;fill-rule:nonzero;stroke:none"
         d="m 1563.03,114.633 c 0,1.562 0.52,2.91 1.6,3.965 1.09,1.074 2.42,1.64 3.96,1.64 1.55,0 2.87,-0.566 3.97,-1.64 1.07,-1.055 1.64,-2.403 1.64,-3.965 V 38.3203 c 0,-1.582 -0.57,-2.8711 -1.64,-3.9609 -1.1,-1.0703 -2.42,-1.5977 -3.97,-1.5977 -1.54,0 -2.87,0.5274 -3.96,1.5977 -1.08,1.0898 -1.6,2.3789 -1.6,3.9609 z m -1.82,25.762 c 0,2.011 0.72,3.75 2.17,5.214 1.44,1.446 3.16,2.168 5.21,2.168 2.05,0 3.77,-0.722 5.22,-2.168 1.44,-1.464 2.17,-3.203 2.17,-5.214 0,-2.051 -0.73,-3.809 -2.17,-5.215 -1.45,-1.465 -3.17,-2.168 -5.22,-2.168 -2.05,0 -3.77,0.703 -5.21,2.168 -1.45,1.406 -2.17,3.164 -2.17,5.215" /><path
         id="path74"
         style="fill:#949595;fill-opacity:1;fill-rule:nonzero;stroke:none"
         d="m 1687.25,77.2109 c -0.28,4.2969 -1.25,8.3594 -2.99,12.1485 -1.74,3.789 -4.08,7.0898 -7.01,9.9023 -2.95,2.8123 -6.35,5.0393 -10.2,6.6603 -3.83,1.601 -7.89,2.422 -12.21,2.422 -4.45,0 -8.61,-0.821 -12.52,-2.52 -3.9,-1.699 -7.3,-3.984 -10.27,-6.9138 -2.93,-2.9493 -5.23,-6.3868 -6.91,-10.3711 -1.7,-3.9453 -2.52,-8.1446 -2.52,-12.5977 0,-4.4531 0.82,-8.6133 2.52,-12.5195 1.68,-3.8867 3.98,-7.3008 6.91,-10.2305 2.97,-2.9726 6.37,-5.2617 10.27,-6.9609 3.91,-1.6797 8.07,-2.5196 12.52,-2.5196 4.32,0 8.38,0.8282 12.21,2.4493 3.85,1.6015 7.25,3.789 10.2,6.5781 2.93,2.75 5.27,5.9765 7.01,9.7265 1.74,3.6915 2.71,7.7344 2.99,12.0508 z m 0,35.4691 c 0,1.523 0.52,2.871 1.6,3.925 1.09,1.114 2.42,1.641 3.96,1.641 1.55,0 2.87,-0.527 3.97,-1.641 1.07,-1.054 1.6,-2.402 1.6,-3.925 V 43.1914 c 0,-5.9023 -1.13,-11.4297 -3.4,-16.6406 -2.28,-5.2227 -5.39,-9.8516 -9.3,-13.7695 -3.88,-3.99224 -8.47,-7.08989 -13.75,-9.38286 C 1666.66,1.12109 1660.96,0 1654.84,0 c -6.11,0 -11.77,1.05859 -16.93,3.23047 -5.16,2.16016 -9.73,5.14844 -13.67,8.98043 l -0.2,0.1993 c -1.07,1.0703 -1.6,2.3398 -1.6,3.7695 0,1.582 0.55,2.9297 1.7,4.0391 1.15,1.1718 2.48,1.7226 4.04,1.7226 1.57,0 2.82,-0.4922 3.79,-1.4297 3.01,-2.9922 6.41,-5.332 10.28,-7.0312 3.82,-1.6602 8.02,-2.5196 12.59,-2.5196 4.44,0 8.66,0.8594 12.6,2.5196 3.95,1.6992 7.42,3.9804 10.35,6.9101 2.93,2.9492 5.24,6.3907 6.94,10.3008 1.66,3.8789 2.52,8.0391 2.52,12.5 v 3.9375 c -3.99,-4.4101 -8.73,-7.9297 -14.34,-10.5078 -5.55,-2.5703 -11.6,-3.8594 -18.07,-3.8594 -5.99,0 -11.62,1.0469 -16.85,3.2188 -5.2,2.1679 -9.81,5.1601 -13.75,9.0195 -3.97,3.8086 -7.11,8.3789 -9.36,13.6563 -2.28,5.2734 -3.42,11.0546 -3.42,17.2851 0,5.9961 1.1,11.6016 3.33,16.8164 2.2,5.2149 5.27,9.7852 9.17,13.7112 3.91,3.867 8.52,6.992 13.87,9.336 5.31,2.343 11.13,3.633 17.37,3.867 6.23,-0.117 12.12,-1.484 17.63,-4.121 5.51,-2.637 10.31,-6.27 14.42,-10.801 v 7.93" /><path
         id="path76"
         style="fill:#949595;fill-opacity:1;fill-rule:nonzero;stroke:none"
         d="m 1740.16,114.633 c 0,1.562 0.52,2.91 1.62,3.965 1.07,1.074 2.38,1.64 3.94,1.64 1.57,0 2.87,-0.566 3.95,-1.64 1.09,-1.055 1.64,-2.403 1.64,-3.965 v -2.344 c 2.77,2.422 5.94,4.316 9.53,5.781 3.59,1.446 7.44,2.168 11.52,2.168 4.46,0 8.64,-0.84 12.58,-2.519 3.99,-1.699 7.42,-4.024 10.39,-6.953 2.93,-2.95 5.24,-6.368 6.92,-10.332 1.68,-3.9848 2.5,-8.184 2.5,-12.5981 V 38.3203 c 0,-1.582 -0.51,-2.8711 -1.61,-3.9609 -1.09,-1.0703 -2.4,-1.5977 -3.94,-1.5977 -1.56,0 -2.89,0.5274 -3.97,1.5977 -1.07,1.0898 -1.64,2.3789 -1.64,3.9609 v 49.5156 c 0,2.8711 -0.56,5.586 -1.7,8.1641 -1.13,2.5781 -2.65,4.844 -4.6,6.777 -1.9,1.895 -4.15,3.399 -6.72,4.473 -2.58,1.094 -5.32,1.621 -8.21,1.621 -2.89,0 -5.58,-0.527 -8.08,-1.621 -2.54,-1.074 -4.77,-2.5 -6.66,-4.297 -1.94,-1.816 -3.42,-3.9257 -4.51,-6.3866 -1.1,-2.4609 -1.68,-5.0976 -1.8,-7.8516 V 38.3203 c 0,-1.582 -0.55,-2.8711 -1.64,-3.9609 -1.08,-1.0703 -2.38,-1.5977 -3.95,-1.5977 -1.56,0 -2.87,0.5274 -3.94,1.5977 -1.1,1.0898 -1.62,2.3789 -1.62,3.9609 v 76.3127" /><path
         id="path78"
         style="fill:#cd1e25;fill-opacity:1;fill-rule:nonzero;stroke:none"
         d="m 2031.74,90.1797 c 2.15,0 4.1,-0.4297 5.84,-1.2891 1.76,-0.8203 3.26,-1.9336 4.51,-3.3203 1.25,-1.3672 2.23,-2.8906 2.87,-4.5898 0.68,-1.6992 1,-3.2813 1,-4.8633 0,-3.8281 -1.41,-7.0899 -4.22,-9.7852 -2.85,-2.7148 -6.15,-4.082 -10,-4.082 -3.83,0 -7.11,1.3672 -9.81,4.082 -2.69,2.6953 -4.04,5.9571 -4.04,9.7852 0,3.9844 1.41,7.3047 4.22,10 2.81,2.7148 6.03,4.0625 9.63,4.0625" /><path
         id="path80"
         style="fill:#949595;fill-opacity:1;fill-rule:nonzero;stroke:none"
         d="m 2333.77,76.1172 c 0,4.4531 -0.86,8.6328 -2.52,12.5976 -1.7,3.9844 -4,7.4024 -6.93,10.3711 -2.93,2.9301 -6.41,5.2151 -10.36,6.9141 -3.94,1.699 -8.16,2.52 -12.59,2.52 -4.46,0 -8.62,-0.821 -12.52,-2.52 -3.91,-1.699 -7.31,-3.984 -10.28,-6.9141 -2.93,-2.9687 -5.23,-6.3867 -6.91,-10.3711 -1.7,-3.9648 -2.52,-8.1445 -2.52,-12.5976 0,-4.4531 0.82,-8.6133 2.52,-12.5 1.68,-3.9063 3.98,-7.3086 6.91,-10.2774 2.97,-2.9492 6.37,-5.2304 10.28,-6.9296 3.9,-1.6602 8.06,-2.5196 12.52,-2.5196 4.31,0 8.38,0.8203 12.2,2.461 3.85,1.5781 7.25,3.8672 10.2,6.7382 2.93,2.8711 5.27,6.2696 7.01,10.1758 1.74,3.8867 2.72,8.1641 2.99,12.8516 z m 0,-27.0078 c -3.98,-4.4375 -8.73,-8.2305 -14.34,-11.4297 -5.54,-3.1602 -11.6,-4.75 -18.06,-4.75 -6,0 -11.62,1.0586 -16.86,3.2305 -5.19,2.1601 -9.8,5.1484 -13.75,9.0195 -3.96,3.8086 -7.11,8.3789 -9.35,13.6523 -2.29,5.2735 -3.42,11.0352 -3.42,17.2852 0,6.0156 1.09,11.6601 3.32,17.0312 2.21,5.3125 5.27,9.9806 9.18,13.9456 3.9,3.945 8.51,7.051 13.87,9.336 5.31,2.285 11.13,3.437 17.36,3.437 5.76,0 11.25,-1.152 16.46,-3.496 5.22,-2.344 9.81,-5.508 13.77,-9.473 3.97,-3.945 7.13,-8.5738 9.48,-13.8472 2.34,-5.2735 3.47,-10.918 3.47,-16.9336 V 38.1484 c 0,-1.5781 -0.52,-2.8671 -1.6,-3.9882 -1.09,-1.0508 -2.42,-1.5821 -3.96,-1.5821 -1.55,0 -2.88,0.5313 -3.97,1.5821 -1.07,1.1211 -1.6,2.4101 -1.6,3.9882 v 10.961" /><path
         id="path82"
         style="fill:#949595;fill-opacity:1;fill-rule:nonzero;stroke:none"
         d="m 2425.21,119.672 c 4.81,0 9.11,-0.723 12.93,-2.129 3.85,-1.465 7.15,-3.105 9.93,-4.98 2.73,-1.836 4.88,-3.692 6.36,-5.567 1.51,-1.875 2.27,-3.281 2.27,-4.219 0,-1.347 -0.53,-2.461 -1.6,-3.4176 -1.1,-0.9766 -2.31,-1.4453 -3.62,-1.4453 -1.54,0 -2.87,0.5273 -3.96,1.6015 -3.01,2.6564 -6.41,4.7854 -10.23,6.4064 -3.87,1.601 -8.01,2.422 -12.43,2.422 -4.45,0 -8.63,-0.821 -12.52,-2.52 -3.92,-1.699 -7.32,-3.984 -10.29,-6.9138 -2.93,-2.9493 -5.23,-6.3868 -6.91,-10.3711 -1.68,-3.9453 -2.5,-8.1446 -2.5,-12.5977 0,-4.4531 0.82,-8.6133 2.5,-12.5195 1.68,-3.8867 3.98,-7.3008 6.91,-10.2305 2.97,-2.9726 6.37,-5.2617 10.29,-6.9609 3.89,-1.6797 8.07,-2.5196 12.52,-2.5196 4.42,0 8.56,0.8282 12.43,2.4493 3.82,1.6015 7.22,3.8789 10.23,6.75 1.09,1.0586 2.42,1.6093 3.96,1.6093 1.43,0 2.72,-0.4882 3.87,-1.5507 1.15,-0.9883 1.7,-2.2774 1.7,-3.8594 0,-0.9375 -0.66,-2.3477 -2.05,-4.2188 -1.39,-1.8789 -3.46,-3.6914 -6.21,-5.4922 -2.79,-1.7773 -6.15,-3.3593 -10.18,-4.6875 -4.02,-1.3125 -8.59,-1.9492 -13.75,-1.9492 -6.01,0 -11.64,1.0469 -16.85,3.2188 -5.22,2.1679 -9.83,5.1601 -13.77,9.0195 -3.95,3.8086 -7.09,8.3789 -9.34,13.6563 -2.3,5.2734 -3.44,11.0546 -3.44,17.2851 0,5.9961 1.12,11.6016 3.34,16.8164 2.21,5.2149 5.28,9.7852 9.16,13.7112 3.91,3.867 8.54,6.992 13.87,9.336 5.33,2.343 11.13,3.633 17.38,3.867" /><path
         id="path84"
         style="fill:#949595;fill-opacity:1;fill-rule:nonzero;stroke:none"
         d="m 2535.92,119.672 c 4.8,0 9.1,-0.723 12.95,-2.129 3.84,-1.465 7.15,-3.105 9.9,-4.98 2.75,-1.836 4.88,-3.692 6.39,-5.567 1.5,-1.875 2.24,-3.281 2.24,-4.219 0,-1.347 -0.51,-2.461 -1.6,-3.4176 -1.09,-0.9766 -2.28,-1.4453 -3.59,-1.4453 -1.57,0 -2.89,0.5273 -3.97,1.6015 -3.03,2.6564 -6.42,4.7854 -10.25,6.4064 -3.87,1.601 -8.01,2.422 -12.42,2.422 -4.46,0 -8.62,-0.821 -12.5,-2.52 -3.95,-1.699 -7.35,-3.984 -10.3,-6.9138 -2.93,-2.9493 -5.25,-6.3868 -6.91,-10.3711 -1.7,-3.9453 -2.52,-8.1446 -2.52,-12.5977 0,-4.4531 0.82,-8.6133 2.52,-12.5195 1.66,-3.8867 3.98,-7.3008 6.91,-10.2305 2.95,-2.9726 6.35,-5.2617 10.3,-6.9609 3.88,-1.6797 8.04,-2.5196 12.5,-2.5196 4.41,0 8.55,0.8282 12.42,2.4493 3.83,1.6015 7.22,3.8789 10.25,6.75 1.08,1.0586 2.4,1.6093 3.97,1.6093 1.42,0 2.71,-0.4882 3.86,-1.5507 1.14,-0.9883 1.68,-2.2774 1.68,-3.8594 0,-0.9375 -0.66,-2.3477 -2.03,-4.2188 -1.38,-1.8789 -3.47,-3.6914 -6.21,-5.4922 -2.79,-1.7773 -6.17,-3.3593 -10.17,-4.6875 -4.05,-1.3125 -8.62,-1.9492 -13.77,-1.9492 -6.02,0 -11.64,1.0469 -16.84,3.2188 -5.23,2.1679 -9.82,5.1601 -13.79,9.0195 -3.94,3.8086 -7.07,8.3789 -9.33,13.6563 -2.29,5.2734 -3.44,11.0546 -3.44,17.2851 0,5.9961 1.13,11.6016 3.36,16.8164 2.18,5.2149 5.27,9.7852 9.16,13.7112 3.88,3.867 8.53,6.992 13.85,9.336 5.35,2.343 11.13,3.633 17.38,3.867" /><path
         id="path86"
         style="fill:#949595;fill-opacity:1;fill-rule:nonzero;stroke:none"
         d="m 2677.77,82.0547 c -0.72,3.7305 -2.05,7.1875 -3.96,10.4687 -1.92,3.2227 -4.3,6.0157 -7.11,8.3596 -2.81,2.344 -6.02,4.18 -9.55,5.586 -3.54,1.347 -7.29,2.051 -11.25,2.051 -3.97,0 -7.72,-0.704 -11.25,-2.051 -3.54,-1.406 -6.7,-3.242 -9.51,-5.586 -2.85,-2.3439 -5.16,-5.1369 -7.03,-8.3596 -1.86,-3.2812 -3.15,-6.7382 -3.87,-10.4687 z m -63.73,-11.1524 c 0.59,-3.8476 1.86,-7.4023 3.79,-10.7226 1.92,-3.2813 4.28,-6.1484 7.11,-8.5586 2.81,-2.4023 6.02,-4.2695 9.61,-5.6602 3.61,-1.3711 7.38,-2.0703 11.35,-2.0703 4.45,0 8.57,0.8203 12.42,2.461 3.85,1.5781 7.27,3.8672 10.25,6.7382 1.1,1.0508 2.41,1.6211 3.99,1.6211 1.56,0 2.87,-0.5703 3.94,-1.6211 1.1,-1.0703 1.63,-2.3984 1.63,-3.9804 0,-1.5313 -0.53,-2.8789 -1.63,-3.9297 -3.94,-4.4492 -8.43,-7.6211 -13.39,-9.4492 -5,-1.8594 -10.71,-2.8008 -17.21,-2.8008 -6,0 -11.6,1.0586 -16.82,3.2305 -5.21,2.1601 -9.8,5.1484 -13.77,9.0195 -3.96,3.8086 -7.09,8.3789 -9.37,13.6523 -2.29,5.2735 -3.4,11.0352 -3.4,17.2852 0,6.0156 1.07,11.6016 3.3,16.8164 2.23,5.2539 5.27,9.7854 9.22,13.7114 3.89,3.867 8.48,7.011 13.85,9.355 5.33,2.344 11.13,3.633 17.36,3.867 5.62,0 11.05,-1.152 16.29,-3.437 5.23,-2.285 9.8,-5.391 13.79,-9.336 3.94,-3.965 7.11,-8.5549 9.51,-13.7893 2.4,-5.1953 3.61,-10.8008 3.61,-16.8359 0,-1.7969 -0.58,-3.1641 -1.79,-4.1407 -1.22,-0.957 -2.47,-1.4258 -3.79,-1.4258 h -69.85" /><path
         id="path88"
         style="fill:#949595;fill-opacity:1;fill-rule:nonzero;stroke:none"
         d="m 2723.65,97.3672 c 0,4.1798 0.86,7.7538 2.52,10.6248 1.66,2.871 3.89,5.215 6.66,7.031 2.74,1.758 5.88,3.047 9.38,3.868 3.47,0.761 6.93,1.172 10.43,1.172 2.85,0 5.93,-0.352 9.16,-0.997 3.26,-0.683 6.23,-1.66 9.02,-2.988 2.75,-1.328 5.04,-2.93 6.82,-4.863 1.83,-1.934 2.69,-4.199 2.69,-6.817 0,-1.328 -0.43,-2.617 -1.33,-3.906 -0.91,-1.2303 -2.38,-1.8748 -4.41,-1.8748 -2.27,0 -4.02,1.3281 -5.23,3.9848 -1.06,2.265 -3.17,3.984 -6.29,5.097 -3.13,1.172 -6.61,1.739 -10.43,1.739 -2.07,0 -4.1,-0.157 -6.21,-0.45 -2.11,-0.332 -3.99,-0.918 -5.67,-1.816 -1.7,-0.879 -3.1,-2.109 -4.26,-3.692 -1.13,-1.542 -1.68,-3.6128 -1.68,-6.1128 0,-1.7969 0.55,-3.3789 1.68,-4.668 1.16,-1.3476 2.58,-2.4609 4.34,-3.3398 1.74,-0.8985 3.67,-1.5821 5.74,-2.0703 2.11,-0.5078 4.14,-0.918 6.06,-1.2696 4.45,-0.7031 8.59,-1.7578 12.5,-3.164 3.9,-1.3477 7.32,-3.1446 10.25,-5.2735 2.95,-2.1679 5.29,-4.7461 7.03,-7.7539 1.74,-3.0273 2.6,-6.4843 2.6,-10.4297 0,-3.9687 -0.84,-7.5976 -2.5,-10.8984 -1.68,-3.3203 -3.98,-6.1289 -6.95,-8.4805 -2.93,-2.3398 -6.39,-4.1406 -10.36,-5.3906 -3.94,-1.25 -8.12,-1.8672 -12.57,-1.8672 -7.58,0 -14.18,1.7188 -19.91,5.2071 -5.68,3.4609 -9.49,8.2617 -11.42,14.4023 -0.12,0.3672 -0.18,0.8984 -0.18,1.5977 0,1.582 0.49,2.9726 1.53,4.1601 1.03,1.1719 2.36,1.7774 4.04,1.7774 1.33,0 2.5,-0.3711 3.51,-1.1329 1.02,-0.8242 1.84,-1.832 2.43,-3.164 1.56,-3.8711 4.25,-6.7383 8.04,-8.7305 3.77,-1.9883 7.76,-2.9883 11.96,-2.9883 5.88,0 10.9,1.3477 15.02,4.0391 4.12,2.7187 6.21,6.5508 6.21,11.4687 0,3.9454 -2.05,7.2852 -6.12,10.0782 -4.08,2.7343 -9.12,4.5312 -15.11,5.3906 -8.66,1.1914 -15.63,3.5547 -20.98,7.1094 -5.35,3.5156 -8.01,8.6718 -8.01,15.3906" /><path
         id="path90"
         style="fill:#949595;fill-opacity:1;fill-rule:nonzero;stroke:none"
         d="m 2822.29,97.3672 c 0,4.1798 0.85,7.7538 2.53,10.6248 1.66,2.871 3.89,5.215 6.64,7.031 2.76,1.758 5.9,3.047 9.38,3.868 3.48,0.761 6.95,1.172 10.43,1.172 2.87,0 5.94,-0.352 9.18,-0.997 3.24,-0.683 6.23,-1.66 9.02,-2.988 2.74,-1.328 5.04,-2.93 6.82,-4.863 1.82,-1.934 2.69,-4.199 2.69,-6.817 0,-1.328 -0.44,-2.617 -1.34,-3.906 -0.9,-1.2303 -2.39,-1.8748 -4.4,-1.8748 -2.28,0 -4.04,1.3281 -5.25,3.9848 -1.06,2.265 -3.17,3.984 -6.29,5.097 -3.11,1.172 -6.6,1.739 -10.43,1.739 -2.05,0 -4.1,-0.157 -6.21,-0.45 -2.11,-0.332 -3.99,-0.918 -5.67,-1.816 -1.68,-0.879 -3.08,-2.109 -4.23,-3.692 -1.16,-1.542 -1.7,-3.6128 -1.7,-6.1128 0,-1.7969 0.54,-3.3789 1.7,-4.668 1.15,-1.3476 2.57,-2.4609 4.33,-3.3398 1.74,-0.8985 3.65,-1.5821 5.74,-2.0703 2.11,-0.5078 4.13,-0.918 6.04,-1.2696 4.45,-0.7031 8.61,-1.7578 12.5,-3.164 3.91,-1.3477 7.34,-3.1446 10.27,-5.2735 2.95,-2.1679 5.3,-4.7461 7.03,-7.7539 1.72,-3.0273 2.6,-6.4843 2.6,-10.4297 0,-3.9687 -0.84,-7.5976 -2.52,-10.8984 -1.68,-3.3203 -3.98,-6.1289 -6.95,-8.4805 -2.93,-2.3398 -6.37,-4.1406 -10.33,-5.3906 -3.97,-1.25 -8.15,-1.8672 -12.6,-1.8672 -7.56,0 -14.18,1.7188 -19.88,5.2071 -5.71,3.4609 -9.5,8.2617 -11.45,14.4023 -0.12,0.3672 -0.15,0.8984 -0.15,1.5977 0,1.582 0.48,2.9726 1.52,4.1601 1.01,1.1719 2.36,1.7774 4.02,1.7774 1.33,0 2.5,-0.3711 3.52,-1.1329 1.03,-0.8242 1.85,-1.832 2.44,-3.164 1.54,-3.8711 4.24,-6.7383 8.03,-8.7305 3.79,-1.9883 7.77,-2.9883 11.95,-2.9883 5.9,0 10.9,1.3477 15.04,4.0391 4.12,2.7187 6.21,6.5508 6.21,11.4687 0,3.9454 -2.07,7.2852 -6.13,10.0782 -4.07,2.7343 -9.1,4.5312 -15.12,5.3906 -8.63,1.1914 -15.63,3.5547 -20.98,7.1094 -5.33,3.5156 -8,8.6718 -8,15.3906" /><path
         id="path92"
         style="fill:#949595;fill-opacity:1;fill-rule:nonzero;stroke:none"
         d="m 2961.43,108.52 c -4.42,0 -8.62,-0.821 -12.5,-2.52 -3.91,-1.699 -7.35,-3.984 -10.28,-6.9141 -2.93,-2.9687 -5.23,-6.3867 -6.91,-10.3711 -1.68,-3.9648 -2.5,-8.1445 -2.5,-12.5976 0,-4.4531 0.82,-8.6133 2.5,-12.5 1.68,-3.9063 3.98,-7.3086 6.91,-10.2774 2.93,-2.9492 6.37,-5.2304 10.28,-6.9296 3.88,-1.6602 8.08,-2.5196 12.5,-2.5196 4.45,0 8.63,0.8594 12.59,2.5196 3.99,1.6992 7.41,3.9804 10.37,6.9296 2.93,2.9688 5.24,6.3711 6.92,10.2774 1.7,3.8867 2.52,8.0469 2.52,12.5 0,4.4531 -0.82,8.6328 -2.52,12.5976 -1.68,3.9844 -3.99,7.4024 -6.92,10.3711 -2.96,2.9301 -6.38,5.2151 -10.37,6.9141 -3.96,1.699 -8.14,2.52 -12.59,2.52 z m 0.39,11.347 c 5.74,0 11.25,-1.152 16.44,-3.496 5.24,-2.344 9.83,-5.508 13.79,-9.473 3.95,-3.945 7.07,-8.5738 9.41,-13.8472 2.35,-5.2735 3.52,-10.918 3.52,-16.9336 0,-5.8594 -1.13,-11.4258 -3.42,-16.6406 -2.24,-5.2149 -5.37,-9.8047 -9.26,-13.7657 -3.88,-3.9921 -8.49,-7.0898 -13.76,-9.3828 -5.28,-2.2773 -10.98,-3.3984 -17.11,-3.3984 -6.02,0 -11.61,1.0586 -16.82,3.2305 -5.22,2.1601 -9.82,5.1484 -13.77,9.0195 -3.95,3.8086 -7.09,8.3789 -9.38,13.6523 -2.28,5.2735 -3.39,11.0352 -3.39,17.2852 0,6.0156 1.09,11.6016 3.32,16.8164 2.22,5.2539 5.27,9.7854 9.18,13.7114 3.9,3.867 8.51,7.011 13.86,9.355 5.34,2.344 11.14,3.633 17.39,3.867" /><path
         id="path94"
         style="fill:#949595;fill-opacity:1;fill-rule:nonzero;stroke:none"
         d="m 3039.9,114.633 c 0,1.562 0.55,2.91 1.62,3.965 1.08,1.074 2.41,1.64 3.99,1.64 1.54,0 2.87,-0.566 3.96,-1.64 1.08,-1.055 1.6,-2.403 1.6,-3.965 v -8.809 c 3.83,4.219 8.48,7.637 13.87,10.332 5.39,2.735 11.27,4.082 17.62,4.082 1.95,0 3.48,-0.566 4.61,-1.64 1.13,-1.055 1.7,-2.403 1.7,-3.965 0,-1.543 -0.57,-2.891 -1.7,-3.945 -1.13,-1.094 -2.66,-1.641 -4.61,-1.641 -4.3,0 -8.34,-0.82 -12.03,-2.52 -3.71,-1.66 -6.99,-3.925 -9.81,-6.8161 -2.85,-2.8906 -5.11,-6.1914 -6.87,-9.9218 -1.72,-3.711 -2.66,-7.6172 -2.78,-11.6797 V 38.3203 c 0,-1.582 -0.52,-2.8711 -1.6,-3.9609 -1.09,-1.0703 -2.42,-1.5977 -3.96,-1.5977 -1.58,0 -2.91,0.5274 -3.99,1.5977 -1.07,1.0898 -1.62,2.3789 -1.62,3.9609 v 76.3127" /><path
         id="path96"
         style="fill:#949595;fill-opacity:1;fill-rule:nonzero;stroke:none"
         d="m 3127.21,114.633 c 0,1.562 0.54,2.91 1.62,3.965 1.07,1.074 2.4,1.64 3.96,1.64 1.55,0 2.85,-0.566 3.95,-1.64 1.09,-1.055 1.64,-2.403 1.64,-3.965 V 38.3203 c 0,-1.582 -0.55,-2.8711 -1.64,-3.9609 -1.1,-1.0703 -2.4,-1.5977 -3.95,-1.5977 -1.56,0 -2.89,0.5274 -3.96,1.5977 -1.08,1.0898 -1.62,2.3789 -1.62,3.9609 z m -1.8,25.762 c 0,2.011 0.72,3.75 2.15,5.214 1.44,1.446 3.16,2.168 5.23,2.168 2.03,0 3.77,-0.722 5.2,-2.168 1.44,-1.464 2.19,-3.203 2.19,-5.214 0,-2.051 -0.75,-3.809 -2.19,-5.215 -1.43,-1.465 -3.17,-2.168 -5.2,-2.168 -2.07,0 -3.79,0.703 -5.23,2.168 -1.43,1.406 -2.15,3.164 -2.15,5.215" /><path
         id="path98"
         style="fill:#949595;fill-opacity:1;fill-rule:nonzero;stroke:none"
         d="m 3250.53,82.0547 c -0.74,3.7305 -2.05,7.1875 -3.95,10.4687 -1.95,3.2227 -4.31,6.0157 -7.13,8.3596 -2.81,2.344 -5.99,4.18 -9.55,5.586 -3.55,1.347 -7.3,2.051 -11.25,2.051 -3.94,0 -7.69,-0.704 -11.25,-2.051 -3.55,-1.406 -6.72,-3.242 -9.53,-5.586 -2.83,-2.3439 -5.16,-5.1369 -7.03,-8.3596 -1.84,-3.2812 -3.13,-6.7382 -3.87,-10.4687 z m -63.71,-11.1524 c 0.58,-3.8476 1.83,-7.4023 3.77,-10.7226 1.89,-3.2813 4.27,-6.1484 7.12,-8.5586 2.82,-2.4023 6,-4.2695 9.61,-5.6602 3.6,-1.3711 7.39,-2.0703 11.33,-2.0703 4.46,0 8.6,0.8203 12.42,2.461 3.83,1.5781 7.27,3.8672 10.26,6.7382 1.07,1.0508 2.4,1.6211 3.98,1.6211 1.55,0 2.87,-0.5703 3.97,-1.6211 1.07,-1.0703 1.6,-2.3984 1.6,-3.9804 0,-1.5313 -0.53,-2.8789 -1.6,-3.9297 -3.97,-4.4492 -8.44,-7.6211 -13.44,-9.4492 -4.96,-1.8594 -10.68,-2.8008 -17.19,-2.8008 -6.01,0 -11.6,1.0586 -16.81,3.2305 -5.22,2.1601 -9.83,5.1484 -13.77,9.0195 -3.95,3.8086 -7.09,8.3789 -9.38,13.6523 -2.28,5.2735 -3.4,11.0352 -3.4,17.2852 0,6.0156 1.1,11.6016 3.32,16.8164 2.23,5.2539 5.28,9.7854 9.18,13.7114 3.91,3.867 8.52,7.011 13.87,9.355 5.33,2.344 11.13,3.633 17.38,3.867 5.63,0 11.04,-1.152 16.29,-3.437 5.2,-2.285 9.77,-5.391 13.75,-9.336 3.97,-3.965 7.13,-8.5549 9.53,-13.7893 2.41,-5.1953 3.6,-10.8008 3.6,-16.8359 0,-1.7969 -0.59,-3.1641 -1.78,-4.1407 -1.19,-0.957 -2.46,-1.4258 -3.77,-1.4258 h -69.84" /><path
         id="path100"
         style="fill:#949595;fill-opacity:1;fill-rule:nonzero;stroke:none"
         d="m 3296.41,97.3672 c 0,4.1798 0.84,7.7538 2.52,10.6248 1.68,2.871 3.9,5.215 6.64,7.031 2.77,1.758 5.89,3.047 9.37,3.868 3.5,0.761 6.95,1.172 10.43,1.172 2.89,0 5.96,-0.352 9.18,-0.997 3.24,-0.683 6.25,-1.66 9.02,-2.988 2.76,-1.328 5.04,-2.93 6.84,-4.863 1.8,-1.934 2.7,-4.199 2.7,-6.817 0,-1.328 -0.45,-2.617 -1.37,-3.906 -0.9,-1.2303 -2.36,-1.8748 -4.38,-1.8748 -2.3,0 -4.06,1.3281 -5.25,3.9848 -1.06,2.265 -3.16,3.984 -6.31,5.097 -3.09,1.172 -6.58,1.739 -10.43,1.739 -2.03,0 -4.1,-0.157 -6.21,-0.45 -2.11,-0.332 -3.98,-0.918 -5.64,-1.816 -1.7,-0.879 -3.11,-2.109 -4.24,-3.692 -1.15,-1.542 -1.72,-3.6128 -1.72,-6.1128 0,-1.7969 0.57,-3.3789 1.72,-4.668 1.13,-1.3476 2.58,-2.4609 4.33,-3.3398 1.72,-0.8985 3.66,-1.5821 5.75,-2.0703 2.1,-0.5078 4.12,-0.918 6.01,-1.2696 4.45,-0.7031 8.63,-1.7578 12.52,-3.164 3.89,-1.3477 7.32,-3.1446 10.25,-5.2735 2.97,-2.1679 5.32,-4.7461 7.04,-7.7539 1.71,-3.0273 2.61,-6.4843 2.61,-10.4297 0,-3.9687 -0.86,-7.5976 -2.54,-10.8984 -1.66,-3.3203 -3.98,-6.1289 -6.93,-8.4805 -2.93,-2.3398 -6.39,-4.1406 -10.33,-5.3906 -3.97,-1.25 -8.17,-1.8672 -12.62,-1.8672 -7.54,0 -14.18,1.7188 -19.88,5.2071 -5.69,3.4609 -9.49,8.2617 -11.43,14.4023 -0.11,0.3672 -0.17,0.8984 -0.17,1.5977 0,1.582 0.5,2.9726 1.52,4.1601 1.02,1.1719 2.38,1.7774 4.04,1.7774 1.31,0 2.48,-0.3711 3.52,-1.1329 1.03,-0.8242 1.85,-1.832 2.44,-3.164 1.54,-3.8711 4.24,-6.7383 8.01,-8.7305 3.79,-1.9883 7.77,-2.9883 11.95,-2.9883 5.9,0 10.9,1.3477 15.04,4.0391 4.14,2.7187 6.21,6.5508 6.21,11.4687 0,3.9454 -2.05,7.2852 -6.13,10.0782 -4.06,2.7343 -9.1,4.5312 -15.12,5.3906 -8.63,1.1914 -15.6,3.5547 -20.98,7.1094 -5.31,3.5156 -7.98,8.6718 -7.98,15.3906" /></g></g></svg>